<svg xmlns="http://www.w3.org/2000/svg" width="940" height="570.12" viewBox="0 0 940 570.12"><title>OAST page graphics</title><path d="M652.66,277.68V261.93h11.39v1.86h-9.3v4.83h8.71v1.84h-8.71v5.36h9.67v1.86Z" fill="#4c5054"/><path d="M665.76,277.68l4.17-5.93-3.86-5.48h2.42l1.75,2.68c.33.51.59.93.79,1.28.32-.48.61-.89.87-1.26l1.93-2.7h2.31l-3.95,5.38,4.25,6h-2.38l-2.34-3.54-.62-1-3,4.5Z" fill="#4c5054"/><path d="M682.27,276l.28,1.71a7.53,7.53,0,0,1-1.46.17,3.31,3.31,0,0,1-1.63-.33,1.83,1.83,0,0,1-.82-.88,6.8,6.8,0,0,1-.24-2.28v-6.56H677v-1.51h1.42v-2.82l1.93-1.16v4h1.94v1.51h-1.94v6.67a3.28,3.28,0,0,0,.1,1.06.81.81,0,0,0,.33.38,1.3,1.3,0,0,0,.66.14A6.38,6.38,0,0,0,682.27,276Z" fill="#4c5054"/><path d="M692,274l2,.25a4.9,4.9,0,0,1-1.75,2.71,5.93,5.93,0,0,1-7.24-.57,6,6,0,0,1-1.46-4.33,6.29,6.29,0,0,1,1.48-4.46,5,5,0,0,1,3.84-1.59,4.89,4.89,0,0,1,3.74,1.55A6.18,6.18,0,0,1,694,272c0,.11,0,.28,0,.51h-8.51a4.34,4.34,0,0,0,1.07,2.88,3.13,3.13,0,0,0,2.38,1,3,3,0,0,0,1.82-.56A3.7,3.7,0,0,0,692,274Zm-6.35-3.13H692a3.83,3.83,0,0,0-.73-2.16,3,3,0,0,0-2.39-1.11,3,3,0,0,0-2.24.89A3.53,3.53,0,0,0,685.62,270.88Z" fill="#4c5054"/><path d="M696.37,277.68V266.27h1.74V268a4.89,4.89,0,0,1,1.23-1.6,2.21,2.21,0,0,1,1.24-.38,3.7,3.7,0,0,1,2,.62l-.66,1.79a2.8,2.8,0,0,0-1.42-.42,1.83,1.83,0,0,0-1.14.39,2,2,0,0,0-.72,1.05,7.71,7.71,0,0,0-.32,2.26v6Z" fill="#4c5054"/><path d="M703.72,277.68V266.27h1.74v1.63a4.09,4.09,0,0,1,3.63-1.88,4.74,4.74,0,0,1,1.9.37,2.86,2.86,0,0,1,1.29,1,3.62,3.62,0,0,1,.6,1.43,10.15,10.15,0,0,1,.11,1.88v7h-1.93v-6.94a5.14,5.14,0,0,0-.23-1.76,1.83,1.83,0,0,0-.8-.94,2.56,2.56,0,0,0-1.35-.35,3.11,3.11,0,0,0-2.13.79,3.84,3.84,0,0,0-.89,3v6.23Z" fill="#4c5054"/><path d="M723.4,276.27a7,7,0,0,1-2.07,1.29,5.75,5.75,0,0,1-2.13.38,4.16,4.16,0,0,1-2.89-.92,3,3,0,0,1-1-2.35,3.21,3.21,0,0,1,.38-1.53,3.25,3.25,0,0,1,1-1.11,4.63,4.63,0,0,1,1.39-.63,13.54,13.54,0,0,1,1.72-.29,17.82,17.82,0,0,0,3.45-.67c0-.26,0-.43,0-.5a2.12,2.12,0,0,0-.55-1.67,3.26,3.26,0,0,0-2.2-.65,3.46,3.46,0,0,0-2,.47,2.87,2.87,0,0,0-1,1.7l-1.9-.26a4.85,4.85,0,0,1,.85-2,3.78,3.78,0,0,1,1.71-1.15,7.62,7.62,0,0,1,2.59-.4,6.8,6.8,0,0,1,2.37.34,3.16,3.16,0,0,1,1.35.87,3.11,3.11,0,0,1,.6,1.31,11.26,11.26,0,0,1,.1,1.78v2.58a28,28,0,0,0,.12,3.41,4,4,0,0,0,.49,1.37h-2A4.16,4.16,0,0,1,723.4,276.27Zm-.16-4.31a14.44,14.44,0,0,1-3.16.73,7.18,7.18,0,0,0-1.68.38,1.79,1.79,0,0,0-.77.63,1.7,1.7,0,0,0,.32,2.21,2.53,2.53,0,0,0,1.71.52,4,4,0,0,0,2-.49,3.06,3.06,0,0,0,1.28-1.34,4.63,4.63,0,0,0,.31-1.93Z" fill="#4c5054"/><path d="M728.15,277.68V261.93h1.93v15.75Z" fill="#4c5054"/><path d="M636.49,289.81v-2.23h1.93v2.23Zm0,13.52V291.92h1.93v11.41Z" fill="#4c5054"/><path d="M641.36,303.33V291.92h1.74v1.63a4.09,4.09,0,0,1,3.63-1.88,4.74,4.74,0,0,1,1.9.37,2.86,2.86,0,0,1,1.29,1,3.78,3.78,0,0,1,.61,1.43,11.46,11.46,0,0,1,.1,1.88v7H648.7v-6.94a5.18,5.18,0,0,0-.23-1.76,1.83,1.83,0,0,0-.8-.94,2.55,2.55,0,0,0-1.34-.35,3.11,3.11,0,0,0-2.14.79,3.88,3.88,0,0,0-.89,3v6.23Z" fill="#4c5054"/><path d="M657.82,301.6l.28,1.71a6.76,6.76,0,0,1-1.46.17,3.31,3.31,0,0,1-1.63-.33,1.83,1.83,0,0,1-.82-.88A6.8,6.8,0,0,1,654,300v-6.56h-1.41v-1.51H654V289.1l1.93-1.16v4h1.94v1.51h-1.94v6.67a3.28,3.28,0,0,0,.1,1.06.81.81,0,0,0,.33.38,1.32,1.32,0,0,0,.66.14A6.38,6.38,0,0,0,657.82,301.6Z" fill="#4c5054"/><path d="M667.52,299.66l2,.25a4.9,4.9,0,0,1-1.75,2.71,5.93,5.93,0,0,1-7.24-.57,6.06,6.06,0,0,1-1.46-4.32,6.3,6.3,0,0,1,1.48-4.47,5,5,0,0,1,3.84-1.59,4.89,4.89,0,0,1,3.74,1.55,6.18,6.18,0,0,1,1.45,4.39c0,.11,0,.28,0,.51h-8.51a4.39,4.39,0,0,0,1.07,2.88,3.15,3.15,0,0,0,2.38,1,3,3,0,0,0,1.82-.56A3.65,3.65,0,0,0,667.52,299.66Zm-6.35-3.13h6.37a3.83,3.83,0,0,0-.73-2.16,3,3,0,0,0-2.39-1.11,3,3,0,0,0-2.24.89A3.53,3.53,0,0,0,661.17,296.53Z" fill="#4c5054"/><path d="M671.92,303.33V291.92h1.75v1.73a4.76,4.76,0,0,1,1.22-1.6,2.22,2.22,0,0,1,1.25-.38,3.7,3.7,0,0,1,2,.62l-.66,1.79a2.8,2.8,0,0,0-1.42-.42,1.83,1.83,0,0,0-1.14.39,2,2,0,0,0-.72,1.05,7.71,7.71,0,0,0-.32,2.26v6Z" fill="#4c5054"/><path d="M686.72,301.93a7.43,7.43,0,0,1-2.07,1.28,5.75,5.75,0,0,1-2.13.38,4.14,4.14,0,0,1-2.89-.92,3,3,0,0,1-1-2.35,3.1,3.1,0,0,1,.38-1.53,3.15,3.15,0,0,1,1-1.11,4.52,4.52,0,0,1,1.39-.63,13.22,13.22,0,0,1,1.72-.29,17.82,17.82,0,0,0,3.45-.67c0-.26,0-.43,0-.5a2.16,2.16,0,0,0-.55-1.67,3.28,3.28,0,0,0-2.2-.65,3.52,3.52,0,0,0-2,.47,3,3,0,0,0-1,1.7l-1.89-.26a4.72,4.72,0,0,1,.85-2,3.67,3.67,0,0,1,1.71-1.15,7.54,7.54,0,0,1,2.59-.4,6.84,6.84,0,0,1,2.37.34,3.06,3.06,0,0,1,1.34.87,2.89,2.89,0,0,1,.6,1.31,10.14,10.14,0,0,1,.1,1.78v2.58a28,28,0,0,0,.12,3.41,4.49,4.49,0,0,0,.49,1.37h-2A4,4,0,0,1,686.72,301.93Zm-.16-4.32a14.73,14.73,0,0,1-3.16.73,7.29,7.29,0,0,0-1.69.38,1.76,1.76,0,0,0-.76.63,1.7,1.7,0,0,0,.32,2.21,2.53,2.53,0,0,0,1.71.52,4.07,4.07,0,0,0,2-.49,3,3,0,0,0,1.27-1.34,4.61,4.61,0,0,0,.32-1.93Z" fill="#4c5054"/><path d="M699,299.15l1.9.25a4.92,4.92,0,0,1-1.59,3.08,4.66,4.66,0,0,1-3.15,1.11,4.9,4.9,0,0,1-3.77-1.53,6.2,6.2,0,0,1-1.42-4.39,7.89,7.89,0,0,1,.61-3.23,4.26,4.26,0,0,1,1.86-2.08,5.57,5.57,0,0,1,2.73-.69,4.72,4.72,0,0,1,3,.94,4.3,4.3,0,0,1,1.51,2.67l-1.88.29a3.12,3.12,0,0,0-.95-1.73,2.43,2.43,0,0,0-1.65-.58,3,3,0,0,0-2.37,1,5,5,0,0,0-.92,3.32,5.13,5.13,0,0,0,.89,3.34,2.86,2.86,0,0,0,2.29,1,2.71,2.71,0,0,0,1.91-.7A3.46,3.46,0,0,0,699,299.15Z" fill="#4c5054"/><path d="M706.73,301.6l.28,1.71a6.83,6.83,0,0,1-1.46.17,3.31,3.31,0,0,1-1.63-.33,1.83,1.83,0,0,1-.82-.88,6.8,6.8,0,0,1-.24-2.28v-6.56h-1.42v-1.51h1.42V289.1l1.93-1.16v4h1.94v1.51h-1.94v6.67a3.28,3.28,0,0,0,.1,1.06.81.81,0,0,0,.33.38,1.3,1.3,0,0,0,.66.14A6.38,6.38,0,0,0,706.73,301.6Z" fill="#4c5054"/><path d="M708.63,289.81v-2.23h1.93v2.23Zm0,13.52V291.92h1.93v11.41Z" fill="#4c5054"/><path d="M712.79,297.63a5.92,5.92,0,0,1,1.76-4.7,5.33,5.33,0,0,1,3.59-1.26,5.09,5.09,0,0,1,3.84,1.54,5.86,5.86,0,0,1,1.5,4.26,7.52,7.52,0,0,1-.66,3.46,4.68,4.68,0,0,1-1.93,2,5.54,5.54,0,0,1-2.75.7,5.13,5.13,0,0,1-3.88-1.54A6.13,6.13,0,0,1,712.79,297.63Zm2,0a4.85,4.85,0,0,0,1,3.28,3.06,3.06,0,0,0,2.41,1.09,3,3,0,0,0,2.39-1.1,5,5,0,0,0,1-3.34,4.69,4.69,0,0,0-1-3.2,3,3,0,0,0-2.39-1.09,3.08,3.08,0,0,0-2.41,1.08A4.85,4.85,0,0,0,714.78,297.63Z" fill="#4c5054"/><path d="M725.74,303.33V291.92h1.74v1.63a4.09,4.09,0,0,1,3.63-1.88,4.74,4.74,0,0,1,1.9.37,2.86,2.86,0,0,1,1.29,1,3.78,3.78,0,0,1,.61,1.43,11.46,11.46,0,0,1,.1,1.88v7h-1.93v-6.94a5.18,5.18,0,0,0-.23-1.76,1.83,1.83,0,0,0-.8-.94,2.55,2.55,0,0,0-1.34-.35,3.11,3.11,0,0,0-2.14.79,3.88,3.88,0,0,0-.89,3v6.23Z" fill="#4c5054"/><path d="M737.21,299.93l1.91-.3a2.65,2.65,0,0,0,.89,1.76,3.12,3.12,0,0,0,2.06.61,3,3,0,0,0,2-.54,1.62,1.62,0,0,0,.64-1.27,1.18,1.18,0,0,0-.57-1,8.19,8.19,0,0,0-2-.65,18.39,18.39,0,0,1-2.95-.93,2.79,2.79,0,0,1-1.25-1.09,2.89,2.89,0,0,1-.42-1.53,2.84,2.84,0,0,1,.35-1.41,3.17,3.17,0,0,1,1-1.08,3.93,3.93,0,0,1,1.23-.56,5.62,5.62,0,0,1,1.67-.23,6.73,6.73,0,0,1,2.35.38,3.21,3.21,0,0,1,1.5,1.05,4,4,0,0,1,.67,1.77l-1.89.26a2.1,2.1,0,0,0-.75-1.38,2.71,2.71,0,0,0-1.74-.49,3.11,3.11,0,0,0-1.9.44,1.27,1.27,0,0,0-.57,1,1.09,1.09,0,0,0,.23.67,1.78,1.78,0,0,0,.74.52c.2.07.77.24,1.71.49a24.82,24.82,0,0,1,2.86.9,2.84,2.84,0,0,1,1.28,1,2.79,2.79,0,0,1,.46,1.65,3.27,3.27,0,0,1-.56,1.82,3.65,3.65,0,0,1-1.63,1.32,6,6,0,0,1-2.41.47,5.41,5.41,0,0,1-3.39-.92A4.31,4.31,0,0,1,737.21,299.93Z" fill="#4c5054"/><path d="M787.3,126.9V106.7h-7.55V104h18.16v2.71h-7.58v20.2Z" fill="#4c5054"/><path d="M807.94,124.85a10.55,10.55,0,0,1-3,1.88,8.79,8.79,0,0,1-3.1.55,6,6,0,0,1-4.2-1.34,4.41,4.41,0,0,1-1.47-3.41,4.52,4.52,0,0,1,.55-2.23,4.66,4.66,0,0,1,1.46-1.62,6.91,6.91,0,0,1,2-.92,18.27,18.27,0,0,1,2.5-.42,26.2,26.2,0,0,0,5-1c0-.39,0-.63,0-.73a3.09,3.09,0,0,0-.8-2.43,4.7,4.7,0,0,0-3.2-.95,4.92,4.92,0,0,0-2.93.7,4.22,4.22,0,0,0-1.4,2.46l-2.75-.38a6.68,6.68,0,0,1,1.24-2.85,5.42,5.42,0,0,1,2.48-1.67,11.09,11.09,0,0,1,3.77-.59,10.07,10.07,0,0,1,3.45.5,4.64,4.64,0,0,1,1.95,1.26,4.44,4.44,0,0,1,.88,1.91,16.41,16.41,0,0,1,.14,2.6V120a39.74,39.74,0,0,0,.18,5,6.09,6.09,0,0,0,.71,2H808.5A5.87,5.87,0,0,1,807.94,124.85Zm-.23-6.28a21.08,21.08,0,0,1-4.6,1.07,10.28,10.28,0,0,0-2.45.56,2.45,2.45,0,0,0-1.11.91,2.41,2.41,0,0,0-.39,1.34,2.38,2.38,0,0,0,.85,1.87,3.67,3.67,0,0,0,2.49.75,5.73,5.73,0,0,0,2.89-.71,4.3,4.3,0,0,0,1.86-1.94,6.87,6.87,0,0,0,.46-2.82Z" fill="#4c5054"/><path d="M814.88,126.9V110.31h2.53v2.51a6.89,6.89,0,0,1,1.79-2.33,3.14,3.14,0,0,1,1.8-.56,5.44,5.44,0,0,1,2.89.91l-1,2.61a4,4,0,0,0-2.06-.61,2.64,2.64,0,0,0-1.65.55,3,3,0,0,0-1.05,1.54,11.06,11.06,0,0,0-.47,3.28v8.69Z" fill="#4c5054"/><path d="M825.05,128.28l2.73.4a2.61,2.61,0,0,0,1,1.85,4.67,4.67,0,0,0,2.86.78,5,5,0,0,0,3-.78,3.87,3.87,0,0,0,1.44-2.19,18.57,18.57,0,0,0,.2-3.61,5.78,5.78,0,0,1-4.59,2.17,6.26,6.26,0,0,1-5.3-2.47,9.49,9.49,0,0,1-1.87-5.92,10.9,10.9,0,0,1,.86-4.38,6.84,6.84,0,0,1,2.49-3.1,6.73,6.73,0,0,1,3.83-1.1,5.94,5.94,0,0,1,4.85,2.38v-2h2.59v14.34a13.5,13.5,0,0,1-.79,5.49,5.77,5.77,0,0,1-2.5,2.56,8.71,8.71,0,0,1-4.21.94,8,8,0,0,1-4.8-1.34A4.53,4.53,0,0,1,825.05,128.28Zm2.33-10a7.22,7.22,0,0,0,1.29,4.76,4.28,4.28,0,0,0,6.5,0,6.92,6.92,0,0,0,1.32-4.68,6.75,6.75,0,0,0-1.36-4.59,4.17,4.17,0,0,0-3.25-1.55,4.07,4.07,0,0,0-3.19,1.52A6.77,6.77,0,0,0,827.38,118.31Z" fill="#4c5054"/><path d="M854.72,121.56l2.91.36a7.13,7.13,0,0,1-2.55,4,8.6,8.6,0,0,1-10.52-.84,8.72,8.72,0,0,1-2.14-6.29,9.18,9.18,0,0,1,2.16-6.5,7.3,7.3,0,0,1,5.59-2.31,7.09,7.09,0,0,1,5.44,2.27,9,9,0,0,1,2.11,6.37c0,.17,0,.42,0,.75H845.33a6.34,6.34,0,0,0,1.55,4.19,4.58,4.58,0,0,0,3.47,1.45,4.32,4.32,0,0,0,2.64-.81A5.49,5.49,0,0,0,854.72,121.56ZM845.49,117h9.26a5.6,5.6,0,0,0-1.06-3.14,4.33,4.33,0,0,0-3.48-1.63,4.48,4.48,0,0,0-3.26,1.3A5.13,5.13,0,0,0,845.49,117Z" fill="#4c5054"/><path d="M867.3,124.39l.41,2.48a10.27,10.27,0,0,1-2.13.25,4.82,4.82,0,0,1-2.37-.48,2.71,2.71,0,0,1-1.19-1.28,10,10,0,0,1-.35-3.32v-9.55h-2.06v-2.18h2.06V106.2l2.8-1.69v5.8h2.83v2.18h-2.83v9.71a4.77,4.77,0,0,0,.15,1.54,1.17,1.17,0,0,0,.48.55,1.85,1.85,0,0,0,1,.2A9.35,9.35,0,0,0,867.3,124.39Z" fill="#4c5054"/><path d="M86.72,107.66V84.76h8.59a10.71,10.71,0,0,1,4.21.69A5.4,5.4,0,0,1,102,87.59a5.68,5.68,0,0,1,.9,3,5.16,5.16,0,0,1-.79,2.76,5.81,5.81,0,0,1-2.41,2.1,6,6,0,0,1,3.2,2.07A5.6,5.6,0,0,1,104,101a6.64,6.64,0,0,1-.68,3,5.73,5.73,0,0,1-1.68,2.13,6.87,6.87,0,0,1-2.5,1.13,15.09,15.09,0,0,1-3.7.38Zm3-13.28h5a11.43,11.43,0,0,0,2.89-.26A3.22,3.22,0,0,0,99.33,93a3.31,3.31,0,0,0,.59-2,3.65,3.65,0,0,0-.55-2,2.72,2.72,0,0,0-1.56-1.19,13.25,13.25,0,0,0-3.49-.32H89.75Zm0,10.58h5.7a13.38,13.38,0,0,0,2.06-.11,4.87,4.87,0,0,0,1.75-.62,3.29,3.29,0,0,0,1.16-1.28,4,4,0,0,0,.45-1.93,3.84,3.84,0,0,0-.65-2.22,3.47,3.47,0,0,0-1.82-1.33A11.22,11.22,0,0,0,95,97.09H89.75Z" fill="#4c5054"/><path d="M118.7,107.66v-2.43a6.09,6.09,0,0,1-5.27,2.81,6.78,6.78,0,0,1-2.74-.56,4.53,4.53,0,0,1-1.89-1.42,5.38,5.38,0,0,1-.87-2.08,14.86,14.86,0,0,1-.17-2.63V91.07h2.81v9.2a15.68,15.68,0,0,0,.18,3,2.9,2.9,0,0,0,1.12,1.74,3.43,3.43,0,0,0,2.13.64,4.65,4.65,0,0,0,2.37-.65,3.59,3.59,0,0,0,1.57-1.77,8.76,8.76,0,0,0,.46-3.24V91.07h2.82v16.59Z" fill="#4c5054"/><path d="M125.59,107.66V91.07h2.53v2.52a6.81,6.81,0,0,1,1.79-2.33,3.11,3.11,0,0,1,1.81-.57,5.55,5.55,0,0,1,2.89.91l-1,2.61a4,4,0,0,0-2.07-.61,2.67,2.67,0,0,0-1.65.56,3,3,0,0,0-1,1.53A11.08,11.08,0,0,0,128.4,99v8.68Z" fill="#4c5054"/><path d="M136.28,114v-23h2.56v2.16a6.21,6.21,0,0,1,2-1.9,5.63,5.63,0,0,1,2.76-.64,6.54,6.54,0,0,1,3.75,1.1,6.76,6.76,0,0,1,2.46,3.08,11.34,11.34,0,0,1,.82,4.37,11.1,11.1,0,0,1-.91,4.59,6.87,6.87,0,0,1-2.66,3.12,6.76,6.76,0,0,1-3.66,1.09,5.21,5.21,0,0,1-2.52-.6,5.57,5.57,0,0,1-1.84-1.5V114Zm2.54-14.56a7.22,7.22,0,0,0,1.3,4.73,4,4,0,0,0,3.14,1.54,4.06,4.06,0,0,0,3.21-1.59,7.54,7.54,0,0,0,1.34-4.91,7.32,7.32,0,0,0-1.31-4.75,3.89,3.89,0,0,0-3.11-1.58,4,4,0,0,0-3.18,1.68A7.53,7.53,0,0,0,138.82,99.46Z" fill="#4c5054"/><path d="M83.14,138.78l2.86-.25a6.27,6.27,0,0,0,.94,2.82,5.17,5.17,0,0,0,2.31,1.78,8.76,8.76,0,0,0,3.51.68,8.46,8.46,0,0,0,3.06-.51,4.27,4.27,0,0,0,2-1.42,3.29,3.29,0,0,0,.65-2,2.94,2.94,0,0,0-.63-1.88,4.51,4.51,0,0,0-2.06-1.35,37.86,37.86,0,0,0-4.08-1.12,21.18,21.18,0,0,1-4.42-1.43A6.13,6.13,0,0,1,84.82,132a5.21,5.21,0,0,1-.81-2.86,5.82,5.82,0,0,1,1-3.24,6.14,6.14,0,0,1,2.87-2.29,10.91,10.91,0,0,1,4.2-.78,11.65,11.65,0,0,1,4.5.82,6.5,6.5,0,0,1,3,2.42,6.87,6.87,0,0,1,1.12,3.61l-2.9.21a4.73,4.73,0,0,0-1.59-3.28,6.16,6.16,0,0,0-4-1.11,6.43,6.43,0,0,0-4,1A3,3,0,0,0,86.93,129a2.62,2.62,0,0,0,.89,2c.59.53,2.11,1.08,4.58,1.64a29.43,29.43,0,0,1,5.07,1.46,7,7,0,0,1,3,2.33,5.75,5.75,0,0,1,1,3.26,6.23,6.23,0,0,1-1.05,3.45,6.92,6.92,0,0,1-3,2.51,10.48,10.48,0,0,1-4.42.9,13.07,13.07,0,0,1-5.21-.91,7.23,7.23,0,0,1-3.29-2.72A7.72,7.72,0,0,1,83.14,138.78Z" fill="#4c5054"/><path d="M116,146.14V143.7a6.06,6.06,0,0,1-5.27,2.81A6.62,6.62,0,0,1,108,146a4.43,4.43,0,0,1-1.89-1.41,5.43,5.43,0,0,1-.87-2.09,14.73,14.73,0,0,1-.17-2.62V129.55h2.81v9.2a16.92,16.92,0,0,0,.17,3,3,3,0,0,0,1.13,1.74,3.48,3.48,0,0,0,2.12.63,4.56,4.56,0,0,0,2.38-.65,3.61,3.61,0,0,0,1.57-1.76,8.83,8.83,0,0,0,.46-3.24v-8.89h2.81v16.59Z" fill="#4c5054"/><path d="M123,126.47v-3.24h2.81v3.24Zm0,19.67V129.55h2.81v16.59Z" fill="#4c5054"/><path d="M136.2,143.62l.41,2.49a11,11,0,0,1-2.13.25,4.7,4.7,0,0,1-2.37-.49,2.65,2.65,0,0,1-1.19-1.27,10,10,0,0,1-.35-3.32v-9.55h-2.06v-2.18h2.06v-4.11l2.8-1.69v5.8h2.83v2.18h-2.83v9.71a4.81,4.81,0,0,0,.15,1.54,1.17,1.17,0,0,0,.48.55,1.87,1.87,0,0,0,1,.2A8.1,8.1,0,0,0,136.2,143.62Z" fill="#4c5054"/><path d="M150.31,140.8l2.91.35a7.12,7.12,0,0,1-2.55,4,7.63,7.63,0,0,1-4.75,1.4,7.56,7.56,0,0,1-5.77-2.24A8.72,8.72,0,0,1,138,138a9.16,9.16,0,0,1,2.16-6.5,7.3,7.3,0,0,1,5.59-2.31,7.11,7.11,0,0,1,5.44,2.27,9,9,0,0,1,2.11,6.37c0,.17,0,.42,0,.75H140.92a6.36,6.36,0,0,0,1.55,4.19,4.58,4.58,0,0,0,3.46,1.45,4.27,4.27,0,0,0,2.64-.81A5.43,5.43,0,0,0,150.31,140.8Zm-9.24-4.55h9.27a5.6,5.6,0,0,0-1.06-3.14,4.31,4.31,0,0,0-3.49-1.63,4.47,4.47,0,0,0-3.25,1.3A5.18,5.18,0,0,0,141.07,136.25Z" fill="#4c5054"/><path d="M195.71,277.68V261.93h3.14l3.73,11.15q.51,1.56.75,2.34c.18-.58.46-1.42.84-2.53l3.77-11h2.8v15.75h-2V264.5l-4.57,13.18h-1.88l-4.56-13.4v13.4Z" fill="#4c5054"/><path d="M213.14,272a5.92,5.92,0,0,1,1.76-4.7,5.33,5.33,0,0,1,3.59-1.26,5.09,5.09,0,0,1,3.84,1.54,5.86,5.86,0,0,1,1.5,4.26,7.55,7.55,0,0,1-.66,3.46,4.68,4.68,0,0,1-1.93,2,5.54,5.54,0,0,1-2.75.7,5.09,5.09,0,0,1-3.87-1.54A6.1,6.1,0,0,1,213.14,272Zm2,0a4.85,4.85,0,0,0,1,3.28,3.06,3.06,0,0,0,2.41,1.09,3,3,0,0,0,2.39-1.1,5,5,0,0,0,1-3.34,4.69,4.69,0,0,0-1-3.2,3,3,0,0,0-2.39-1.09,3.08,3.08,0,0,0-2.41,1.08A4.85,4.85,0,0,0,215.13,272Z" fill="#4c5054"/><path d="M226.09,277.68V266.27h1.74v1.63a4.09,4.09,0,0,1,3.63-1.88,4.74,4.74,0,0,1,1.9.37,2.86,2.86,0,0,1,1.29,1,3.78,3.78,0,0,1,.61,1.43,11.46,11.46,0,0,1,.1,1.88v7h-1.93v-6.94a5.14,5.14,0,0,0-.23-1.76,1.83,1.83,0,0,0-.8-.94,2.55,2.55,0,0,0-1.34-.35,3.11,3.11,0,0,0-2.14.79,3.88,3.88,0,0,0-.89,3v6.23Z" fill="#4c5054"/><path d="M238.34,264.16v-2.23h1.93v2.23Zm0,13.52V266.27h1.93v11.41Z" fill="#4c5054"/><path d="M247.44,276l.28,1.71a7.53,7.53,0,0,1-1.46.17,3.35,3.35,0,0,1-1.64-.33,1.81,1.81,0,0,1-.81-.88,6.8,6.8,0,0,1-.24-2.28v-6.56h-1.42v-1.51h1.42v-2.82l1.92-1.16v4h1.95v1.51h-1.95v6.67a3.18,3.18,0,0,0,.11,1.06.72.72,0,0,0,.33.38,1.3,1.3,0,0,0,.66.14A6.53,6.53,0,0,0,247.44,276Z" fill="#4c5054"/><path d="M248.61,272a5.92,5.92,0,0,1,1.76-4.7A5.33,5.33,0,0,1,254,266a5.09,5.09,0,0,1,3.84,1.54,5.86,5.86,0,0,1,1.5,4.26,7.55,7.55,0,0,1-.66,3.46,4.62,4.62,0,0,1-1.93,2,5.54,5.54,0,0,1-2.75.7,5.09,5.09,0,0,1-3.87-1.54A6.1,6.1,0,0,1,248.61,272Zm2,0a4.85,4.85,0,0,0,1,3.28,3.06,3.06,0,0,0,2.41,1.09,3,3,0,0,0,2.39-1.1,5,5,0,0,0,1-3.34,4.69,4.69,0,0,0-1-3.2,3,3,0,0,0-2.39-1.09,3.08,3.08,0,0,0-2.41,1.08A4.85,4.85,0,0,0,250.6,272Z" fill="#4c5054"/><path d="M261.54,277.68V266.27h1.74V268a4.89,4.89,0,0,1,1.23-1.6,2.21,2.21,0,0,1,1.24-.38,3.73,3.73,0,0,1,2,.62l-.67,1.79a2.73,2.73,0,0,0-1.41-.42,1.79,1.79,0,0,0-1.14.39,2,2,0,0,0-.72,1.05,7.39,7.39,0,0,0-.32,2.26v6Z" fill="#4c5054"/><path d="M284,275.82a6.46,6.46,0,0,1-2.08,1.6,5.69,5.69,0,0,1-2.44.53,4.8,4.8,0,0,1-3.83-1.63,4.43,4.43,0,0,1-1.15-3,4.08,4.08,0,0,1,.94-2.63,7.64,7.64,0,0,1,2.81-2.07,9.25,9.25,0,0,1-1.42-2,3.45,3.45,0,0,1-.36-1.47,3.26,3.26,0,0,1,1.12-2.47,3.89,3.89,0,0,1,2.79-1,3.62,3.62,0,0,1,2.64,1,3.17,3.17,0,0,1,1,2.38q0,2.24-3,3.83l2.83,3.6a9.07,9.07,0,0,0,.75-2.19l2,.43a11,11,0,0,1-1.4,3.39,11.05,11.05,0,0,0,2.46,2.42l-1.3,1.54A11,11,0,0,1,284,275.82Zm-1.21-1.52-3.54-4.4a6.84,6.84,0,0,0-2.12,1.74,2.75,2.75,0,0,0-.55,1.58,3.43,3.43,0,0,0,.76,2,2.52,2.52,0,0,0,2.16,1,3.58,3.58,0,0,0,1.8-.54A4.36,4.36,0,0,0,282.79,274.3Zm-2.72-6.68a5.29,5.29,0,0,0,1.63-1.3,2.2,2.2,0,0,0,.37-1.24,1.76,1.76,0,0,0-.51-1.31,1.72,1.72,0,0,0-1.27-.51,1.79,1.79,0,0,0-1.31.5,1.65,1.65,0,0,0-.52,1.24,1.74,1.74,0,0,0,.19.76,3.79,3.79,0,0,0,.56.86Z" fill="#4c5054"/><path d="M217,299.15l1.9.25a4.92,4.92,0,0,1-1.59,3.08,4.66,4.66,0,0,1-3.15,1.11,4.9,4.9,0,0,1-3.77-1.53,6.2,6.2,0,0,1-1.42-4.39,7.89,7.89,0,0,1,.61-3.23,4.26,4.26,0,0,1,1.86-2.08,5.57,5.57,0,0,1,2.73-.69,4.72,4.72,0,0,1,3,.94,4.3,4.3,0,0,1,1.51,2.67l-1.88.29a3.06,3.06,0,0,0-1-1.73,2.43,2.43,0,0,0-1.65-.58,3,3,0,0,0-2.37,1,5,5,0,0,0-.92,3.32,5.13,5.13,0,0,0,.89,3.34,2.86,2.86,0,0,0,2.29,1,2.71,2.71,0,0,0,1.91-.7A3.46,3.46,0,0,0,217,299.15Z" fill="#4c5054"/><path d="M219.87,297.63a5.92,5.92,0,0,1,1.76-4.7,5.33,5.33,0,0,1,3.59-1.26,5.09,5.09,0,0,1,3.84,1.54,5.86,5.86,0,0,1,1.5,4.26,7.52,7.52,0,0,1-.66,3.46,4.68,4.68,0,0,1-1.93,2,5.54,5.54,0,0,1-2.75.7,5.09,5.09,0,0,1-3.87-1.54A6.09,6.09,0,0,1,219.87,297.63Zm2,0a4.85,4.85,0,0,0,.95,3.28,3.06,3.06,0,0,0,2.41,1.09,3,3,0,0,0,2.39-1.1,5,5,0,0,0,1-3.34,4.69,4.69,0,0,0-1-3.2,3,3,0,0,0-2.39-1.09,3.08,3.08,0,0,0-2.41,1.08A4.85,4.85,0,0,0,221.86,297.63Z" fill="#4c5054"/><path d="M232.82,303.33V291.92h1.74v1.63a4.09,4.09,0,0,1,3.63-1.88,4.74,4.74,0,0,1,1.9.37,2.86,2.86,0,0,1,1.29,1,3.78,3.78,0,0,1,.61,1.43,11.46,11.46,0,0,1,.1,1.88v7h-1.93v-6.94a5.18,5.18,0,0,0-.23-1.76,1.83,1.83,0,0,0-.8-.94,2.55,2.55,0,0,0-1.34-.35,3.11,3.11,0,0,0-2.14.79,3.88,3.88,0,0,0-.89,3v6.23Z" fill="#4c5054"/><path d="M249.28,301.6l.28,1.71a6.76,6.76,0,0,1-1.46.17,3.31,3.31,0,0,1-1.63-.33,1.83,1.83,0,0,1-.82-.88,6.8,6.8,0,0,1-.24-2.28v-6.56H244v-1.51h1.41V289.1l1.93-1.16v4h1.94v1.51h-1.94v6.67a3.28,3.28,0,0,0,.1,1.06.81.81,0,0,0,.33.38,1.32,1.32,0,0,0,.66.14A6.38,6.38,0,0,0,249.28,301.6Z" fill="#4c5054"/><path d="M251.15,303.33V291.92h1.74v1.73a4.63,4.63,0,0,1,1.23-1.6,2.21,2.21,0,0,1,1.24-.38,3.76,3.76,0,0,1,2,.62l-.67,1.79a2.74,2.74,0,0,0-1.42-.42,1.83,1.83,0,0,0-1.14.39,2,2,0,0,0-.71,1.05,7.39,7.39,0,0,0-.33,2.26v6Z" fill="#4c5054"/><path d="M257.78,297.63a5.88,5.88,0,0,1,1.76-4.7,5.33,5.33,0,0,1,3.59-1.26,5.09,5.09,0,0,1,3.84,1.54,5.86,5.86,0,0,1,1.5,4.26,7.52,7.52,0,0,1-.66,3.46,4.73,4.73,0,0,1-1.93,2,5.54,5.54,0,0,1-2.75.7,5.13,5.13,0,0,1-3.88-1.54A6.13,6.13,0,0,1,257.78,297.63Zm2,0a4.85,4.85,0,0,0,1,3.28,3.06,3.06,0,0,0,2.41,1.09,3,3,0,0,0,2.39-1.1,5,5,0,0,0,1-3.34,4.69,4.69,0,0,0-1-3.2,3,3,0,0,0-2.39-1.09,3.08,3.08,0,0,0-2.41,1.08A4.85,4.85,0,0,0,259.76,297.63Z" fill="#4c5054"/><path d="M270.69,303.33V287.58h1.93v15.75Z" fill="#4c5054"/><path d="M511.93,320.4l13.14-11.15,1.48,1.74-5.4,4.57,5.8,6.84,5.39-4.58,1.48,1.74-13.15,11.15L519.2,329l6.19-5.26-5.79-6.83-6.2,5.25Z" fill="#4c5054"/><path d="M524.23,337.09,537.7,330l-2.64-5,1.8-.95,6.35,12.1-1.81,1-2.65-5.05-13.46,7.06Z" fill="#4c5054"/><path d="M529.59,349.83l14.61-4.21-1.57-5.45,2-.57,3.78,13.13-2,.57-1.58-5.48L530.22,352Z" fill="#4c5054"/><path d="M532,359l17.2-1.18.44,6.49a15.34,15.34,0,0,1,0,2.62,5.38,5.38,0,0,1-.66,2.18,4.18,4.18,0,0,1-1.57,1.49,5.07,5.07,0,0,1-2.31.68,5.23,5.23,0,0,1-3.8-1.14c-1.08-.86-1.7-2.5-1.87-4.94l-.3-4.41-7,.48Zm9.18,1.66.3,4.44a4.73,4.73,0,0,0,1,3.08,2.92,2.92,0,0,0,2.37.76,3.09,3.09,0,0,0,1.81-.67,2.54,2.54,0,0,0,.92-1.5,10.19,10.19,0,0,0,0-2.14l-.31-4.4Z" fill="#4c5054"/><path d="M485.76,435.34l3.78,16.82-5.79,1.3a13.72,13.72,0,0,1-3.05.43,5.8,5.8,0,0,1-2.74-.65,7,7,0,0,1-2.63-2.42,11.68,11.68,0,0,1-1.56-3.85,12.16,12.16,0,0,1-.32-3.49,8.54,8.54,0,0,1,.6-2.71,6.17,6.17,0,0,1,1.18-1.87,6.53,6.53,0,0,1,1.82-1.3,11.65,11.65,0,0,1,2.64-.89ZM484,437.83l-3.59.81a8.86,8.86,0,0,0-2.54.89,3.77,3.77,0,0,0-1.31,1.21,5.53,5.53,0,0,0-.76,2.41,10.66,10.66,0,0,0,.29,3.34,8.08,8.08,0,0,0,1.78,3.86,4.44,4.44,0,0,0,2.53,1.42,8.73,8.73,0,0,0,3-.3l3.53-.8Z" fill="#4c5054"/><path d="M469.65,438.62l-.28,17.24-2.34,0-8.83-13.68L458,455.67l-2.18,0,.28-17.23,2.34,0,8.83,13.7.23-13.54Z" fill="#4c5054"/><path d="M452.62,443.52l-2.14-.34a4.72,4.72,0,0,0-.17-2.23,3.87,3.87,0,0,0-1.36-1.72,7.11,7.11,0,0,0-4.77-1.33,3.17,3.17,0,0,0-1.7.68,2.39,2.39,0,0,0-.83,1.31,2.23,2.23,0,0,0,.11,1.49,3.5,3.5,0,0,0,1.26,1.36,28.59,28.59,0,0,0,2.77,1.56,16.53,16.53,0,0,1,3,1.85,4.73,4.73,0,0,1,1.39,2,3.93,3.93,0,0,1,.07,2.23,4.39,4.39,0,0,1-1.32,2.18,4.54,4.54,0,0,1-2.51,1.15,8.22,8.22,0,0,1-3.21-.2,8.52,8.52,0,0,1-3.13-1.42,4.85,4.85,0,0,1-1.74-2.31,5.24,5.24,0,0,1-.17-2.84l2.17.37a3.51,3.51,0,0,0,.55,2.69,4.75,4.75,0,0,0,2.71,1.54,4.83,4.83,0,0,0,3.11,0,2.27,2.27,0,0,0,1.37-1.54,2,2,0,0,0-.28-1.64,9,9,0,0,0-3-2,21.74,21.74,0,0,1-3.43-2,5.22,5.22,0,0,1-1.73-2.24,4.25,4.25,0,0,1-.1-2.55,4.73,4.73,0,0,1,1.39-2.33,5.23,5.23,0,0,1,2.66-1.28,7.86,7.86,0,0,1,3.39.15,10,10,0,0,1,3.63,1.61,5.48,5.48,0,0,1,1.91,2.6A5.79,5.79,0,0,1,452.62,443.52Z" fill="#4c5054"/><path d="M389.92,377.06l-.22-2.15a4.84,4.84,0,0,0,2.11-.75,3.84,3.84,0,0,0,1.31-1.75,6.5,6.5,0,0,0,.47-2.66,6.28,6.28,0,0,0-.43-2.3,3.18,3.18,0,0,0-1.08-1.47,2.52,2.52,0,0,0-1.49-.46,2.26,2.26,0,0,0-1.41.49,3.66,3.66,0,0,0-1,1.57c-.17.47-.43,1.5-.79,3.08a15.31,15.31,0,0,1-1,3.35,4.64,4.64,0,0,1-1.57,1.86,4,4,0,0,1-2.14.65,4.34,4.34,0,0,1-2.45-.71,4.56,4.56,0,0,1-1.76-2.13,8.16,8.16,0,0,1-.64-3.15,8.74,8.74,0,0,1,.56-3.39,4.83,4.83,0,0,1,1.78-2.28,5.21,5.21,0,0,1,2.71-.89l.2,2.18a3.52,3.52,0,0,0-2.45,1.23,4.63,4.63,0,0,0-.79,3,4.76,4.76,0,0,0,.81,3,2.28,2.28,0,0,0,1.84.92,1.94,1.94,0,0,0,1.52-.7,9.06,9.06,0,0,0,1.17-3.45,23.29,23.29,0,0,1,1-3.84,5.19,5.19,0,0,1,1.72-2.25,4.22,4.22,0,0,1,2.44-.75,4.63,4.63,0,0,1,2.6.74,5.16,5.16,0,0,1,1.93,2.23,7.85,7.85,0,0,1,.73,3.31,10,10,0,0,1-.61,3.94,5.51,5.51,0,0,1-2,2.51A5.84,5.84,0,0,1,389.92,377.06Z" fill="#4c5054"/><path d="M395.4,361.14l-16.72-4.2.84-3.33,12.83-1c1.19-.09,2.09-.15,2.68-.18-.57-.34-1.38-.86-2.46-1.56L381.94,344l.75-3,16.72,4.2-.54,2.13-14-3.51,12.77,8.37-.5,2-15.44,1.27L395.94,359Z" fill="#4c5054"/><path d="M402.74,338.87l-13.44-7.1-2.65,5-1.8-1,6.38-12.08,1.8.95-2.66,5,13.44,7.11Z" fill="#4c5054"/><path d="M407.36,330.62l-13.21-11.06,4.17-5a15.75,15.75,0,0,1,1.81-1.9,5.21,5.21,0,0,1,2-1.12,4.27,4.27,0,0,1,2.16,0,5.6,5.6,0,0,1,4.09,4.57q.27,2.06-2.08,4.85l-2.83,3.39,5.37,4.5Zm-5.46-7.55,2.86-3.42a4.77,4.77,0,0,0,1.38-2.93,2.9,2.9,0,0,0-1.18-2.2,3.12,3.12,0,0,0-1.77-.77,2.55,2.55,0,0,0-1.7.45,9.84,9.84,0,0,0-1.49,1.53l-2.83,3.38Z" fill="#4c5054"/><path d="M347,506.76V483.85h8.59a10.7,10.7,0,0,1,4.21.7,5.42,5.42,0,0,1,2.49,2.14,5.7,5.7,0,0,1,.89,3,5.22,5.22,0,0,1-.79,2.77,5.73,5.73,0,0,1-2.41,2.09,6,6,0,0,1,3.2,2.08,5.6,5.6,0,0,1,1.11,3.47,6.59,6.59,0,0,1-.68,3,5.73,5.73,0,0,1-1.68,2.13,7,7,0,0,1-2.5,1.14,15.59,15.59,0,0,1-3.7.38Zm3-13.28h4.95a10.88,10.88,0,0,0,2.89-.27,3.22,3.22,0,0,0,1.74-1.14,3.29,3.29,0,0,0,.59-2,3.65,3.65,0,0,0-.55-2,2.75,2.75,0,0,0-1.56-1.18,12.79,12.79,0,0,0-3.48-.32H350Zm0,10.58h5.7a13.38,13.38,0,0,0,2.06-.11,5.07,5.07,0,0,0,1.75-.63,3.26,3.26,0,0,0,1.16-1.27,4,4,0,0,0,.45-1.93,3.88,3.88,0,0,0-.65-2.23,3.52,3.52,0,0,0-1.82-1.33,11.55,11.55,0,0,0-3.36-.38H350Z" fill="#4c5054"/><path d="M378.93,506.76v-2.44a6.06,6.06,0,0,1-5.26,2.81,6.66,6.66,0,0,1-2.75-.56,4.43,4.43,0,0,1-1.89-1.41,5.21,5.21,0,0,1-.86-2.09,13.56,13.56,0,0,1-.18-2.62V490.17h2.82v9.2a16,16,0,0,0,.17,3,2.9,2.9,0,0,0,1.12,1.74,3.51,3.51,0,0,0,2.13.63,4.55,4.55,0,0,0,2.37-.65,3.57,3.57,0,0,0,1.57-1.76,8.83,8.83,0,0,0,.46-3.24v-8.89h2.82v16.59Z" fill="#4c5054"/><path d="M385.82,506.76V490.17h2.53v2.51a6.91,6.91,0,0,1,1.79-2.33,3.17,3.17,0,0,1,1.81-.56,5.46,5.46,0,0,1,2.89.91l-1,2.61a4,4,0,0,0-2.06-.61,2.67,2.67,0,0,0-1.66.55,3,3,0,0,0-1,1.54,11,11,0,0,0-.47,3.28v8.69Z" fill="#4c5054"/><path d="M396.51,513.12V490.17h2.56v2.15a6.53,6.53,0,0,1,2.05-1.9,5.63,5.63,0,0,1,2.76-.63,6.61,6.61,0,0,1,3.75,1.09,6.74,6.74,0,0,1,2.46,3.09,11.3,11.3,0,0,1,.83,4.37,11.05,11.05,0,0,1-.92,4.58,6.93,6.93,0,0,1-6.32,4.21,5.21,5.21,0,0,1-2.52-.59,5.57,5.57,0,0,1-1.84-1.5v8.08Zm2.55-14.56a7.24,7.24,0,0,0,1.29,4.73,4,4,0,0,0,3.14,1.53,4.08,4.08,0,0,0,3.21-1.58,7.55,7.55,0,0,0,1.34-4.92,7.39,7.39,0,0,0-1.3-4.75,3.94,3.94,0,0,0-3.12-1.58,4,4,0,0,0-3.18,1.68A7.54,7.54,0,0,0,399.06,498.56Z" fill="#4c5054"/><path d="M439.9,498.73l3,.76a10.26,10.26,0,0,1-3.43,5.7,9.43,9.43,0,0,1-6.05,2,10.87,10.87,0,0,1-6-1.51,9.43,9.43,0,0,1-3.53-4.37,15.5,15.5,0,0,1-1.21-6.14,13.53,13.53,0,0,1,1.37-6.24,9.38,9.38,0,0,1,3.89-4,11.26,11.26,0,0,1,5.55-1.39,9.43,9.43,0,0,1,5.78,1.75,9.05,9.05,0,0,1,3.27,4.92l-3,.71a7.13,7.13,0,0,0-2.32-3.64,6.16,6.16,0,0,0-3.81-1.14,7.41,7.41,0,0,0-4.41,1.26,6.7,6.7,0,0,0-2.5,3.4,13.65,13.65,0,0,0-.71,4.4,13.9,13.9,0,0,0,.85,5.1,6.32,6.32,0,0,0,2.65,3.26,7.38,7.38,0,0,0,3.89,1.08,6.53,6.53,0,0,0,4.31-1.47A7.51,7.51,0,0,0,439.9,498.73Z" fill="#4c5054"/><path d="M445.26,498.46q0-4.6,2.56-6.83a7.78,7.78,0,0,1,5.22-1.84,7.44,7.44,0,0,1,5.59,2.24,8.54,8.54,0,0,1,2.18,6.2,10.88,10.88,0,0,1-1,5,6.84,6.84,0,0,1-2.79,2.85,8.13,8.13,0,0,1-4,1,7.45,7.45,0,0,1-5.63-2.23C446,503.41,445.26,501.27,445.26,498.46Zm2.89,0a7.07,7.07,0,0,0,1.39,4.78,4.47,4.47,0,0,0,3.5,1.58,4.41,4.41,0,0,0,3.48-1.59,7.21,7.21,0,0,0,1.4-4.86,6.89,6.89,0,0,0-1.4-4.67,4.64,4.64,0,0,0-7,0A7,7,0,0,0,448.15,498.46Z" fill="#4c5054"/><path d="M464,506.76V483.85h2.81v22.91Z" fill="#4c5054"/><path d="M471.15,506.76V483.85H474v22.91Z" fill="#4c5054"/><path d="M489.15,504.71a10.55,10.55,0,0,1-3,1.88,8.78,8.78,0,0,1-3.1.54,6,6,0,0,1-4.2-1.33,4.41,4.41,0,0,1-1.47-3.42,4.51,4.51,0,0,1,.55-2.22,4.66,4.66,0,0,1,1.46-1.62,6.66,6.66,0,0,1,2-.92,18.27,18.27,0,0,1,2.5-.42,26.2,26.2,0,0,0,5-1c0-.39,0-.63,0-.74a3.08,3.08,0,0,0-.8-2.42,4.7,4.7,0,0,0-3.2-.95,5,5,0,0,0-2.93.69,4.28,4.28,0,0,0-1.4,2.46l-2.75-.37a6.68,6.68,0,0,1,1.24-2.85,5.35,5.35,0,0,1,2.48-1.67,11.09,11.09,0,0,1,3.77-.59,10.07,10.07,0,0,1,3.45.5,4,4,0,0,1,2.83,3.17,16.41,16.41,0,0,1,.14,2.6v3.75a39.85,39.85,0,0,0,.18,5,6.17,6.17,0,0,0,.71,2h-2.94A5.93,5.93,0,0,1,489.15,504.71Zm-.23-6.28a20.6,20.6,0,0,1-4.6,1.06,10.69,10.69,0,0,0-2.45.57,2.45,2.45,0,0,0-1.11.91,2.41,2.41,0,0,0-.39,1.34,2.38,2.38,0,0,0,.85,1.87,3.67,3.67,0,0,0,2.49.75,5.84,5.84,0,0,0,2.89-.71,4.27,4.27,0,0,0,1.86-2,6.78,6.78,0,0,0,.46-2.81Z" fill="#4c5054"/><path d="M498.71,506.76H496.1V483.85h2.82V492a5.57,5.57,0,0,1,4.54-2.23,7,7,0,0,1,2.9.62,6,6,0,0,1,2.25,1.73,8.39,8.39,0,0,1,1.38,2.7,10.9,10.9,0,0,1,.5,3.37,9.48,9.48,0,0,1-2.11,6.6,6.58,6.58,0,0,1-5.06,2.32,5.28,5.28,0,0,1-4.61-2.45Zm0-8.42a8.61,8.61,0,0,0,.81,4.31,4.06,4.06,0,0,0,3.6,2.17,4,4,0,0,0,3.18-1.6,7.26,7.26,0,0,0,1.35-4.77,7.4,7.4,0,0,0-1.29-4.8,3.94,3.94,0,0,0-3.12-1.55,4.08,4.08,0,0,0-3.19,1.6A7.09,7.09,0,0,0,498.68,498.34Z" fill="#4c5054"/><path d="M512.87,498.46q0-4.6,2.56-6.83a7.78,7.78,0,0,1,5.22-1.84,7.46,7.46,0,0,1,5.59,2.24,8.54,8.54,0,0,1,2.18,6.2,11,11,0,0,1-1,5,6.84,6.84,0,0,1-2.79,2.85,8.13,8.13,0,0,1-4,1A7.45,7.45,0,0,1,515,504.9C513.58,503.41,512.87,501.27,512.87,498.46Zm2.89,0a7.07,7.07,0,0,0,1.39,4.78,4.47,4.47,0,0,0,3.5,1.58,4.43,4.43,0,0,0,3.48-1.59,7.21,7.21,0,0,0,1.39-4.86,6.89,6.89,0,0,0-1.39-4.67,4.64,4.64,0,0,0-7,0A7,7,0,0,0,515.76,498.46Z" fill="#4c5054"/><path d="M531.68,506.76V490.17h2.53v2.51a6.91,6.91,0,0,1,1.79-2.33,3.17,3.17,0,0,1,1.81-.56,5.46,5.46,0,0,1,2.89.91l-1,2.61a4,4,0,0,0-2.06-.61,2.67,2.67,0,0,0-1.66.55,3,3,0,0,0-1,1.54,11,11,0,0,0-.47,3.28v8.69Z" fill="#4c5054"/><path d="M553.2,504.71a10.69,10.69,0,0,1-3,1.88,8.82,8.82,0,0,1-3.1.54,6,6,0,0,1-4.21-1.33,4.4,4.4,0,0,1-1.46-3.42,4.51,4.51,0,0,1,.55-2.22,4.63,4.63,0,0,1,1.45-1.62,6.83,6.83,0,0,1,2-.92,18.27,18.27,0,0,1,2.5-.42,25.9,25.9,0,0,0,5-1c0-.39,0-.63,0-.74a3.12,3.12,0,0,0-.8-2.42,4.74,4.74,0,0,0-3.2-.95,5,5,0,0,0-2.93.69,4.28,4.28,0,0,0-1.4,2.46l-2.75-.37a6.8,6.8,0,0,1,1.23-2.85,5.38,5.38,0,0,1,2.49-1.67,11.07,11.07,0,0,1,3.76-.59,10.09,10.09,0,0,1,3.46.5,4.52,4.52,0,0,1,1.95,1.26,4.39,4.39,0,0,1,.88,1.91,16.41,16.41,0,0,1,.14,2.6v3.75a39.85,39.85,0,0,0,.18,5,6,6,0,0,0,.71,2h-2.94A5.93,5.93,0,0,1,553.2,504.71Zm-.24-6.28a20.35,20.35,0,0,1-4.59,1.06,10.42,10.42,0,0,0-2.45.57,2.45,2.45,0,0,0-1.11.91,2.34,2.34,0,0,0-.39,1.34,2.38,2.38,0,0,0,.85,1.87,3.65,3.65,0,0,0,2.49.75,5.84,5.84,0,0,0,2.89-.71,4.38,4.38,0,0,0,1.86-2,6.8,6.8,0,0,0,.45-2.81Z" fill="#4c5054"/><path d="M566.31,504.24l.4,2.49a10.91,10.91,0,0,1-2.12.25,4.75,4.75,0,0,1-2.38-.49,2.7,2.7,0,0,1-1.19-1.27,10.08,10.08,0,0,1-.34-3.32v-9.55h-2.06v-2.18h2.06v-4.11l2.8-1.69v5.8h2.83v2.18h-2.83v9.71a4.81,4.81,0,0,0,.15,1.54,1.12,1.12,0,0,0,.48.55,1.81,1.81,0,0,0,1,.2A8.32,8.32,0,0,0,566.31,504.24Z" fill="#4c5054"/><path d="M568,498.46q0-4.6,2.56-6.83a7.78,7.78,0,0,1,5.22-1.84,7.44,7.44,0,0,1,5.59,2.24,8.54,8.54,0,0,1,2.18,6.2,10.88,10.88,0,0,1-1,5,6.84,6.84,0,0,1-2.79,2.85,8.13,8.13,0,0,1-4,1,7.45,7.45,0,0,1-5.63-2.23C568.72,503.41,568,501.27,568,498.46Zm2.89,0a7.07,7.07,0,0,0,1.39,4.78,4.47,4.47,0,0,0,3.5,1.58,4.41,4.41,0,0,0,3.48-1.59,7.21,7.21,0,0,0,1.4-4.86,6.89,6.89,0,0,0-1.4-4.67,4.64,4.64,0,0,0-7,0A7,7,0,0,0,570.9,498.46Z" fill="#4c5054"/><path d="M586.82,506.76V490.17h2.53v2.51a6.91,6.91,0,0,1,1.79-2.33,3.17,3.17,0,0,1,1.81-.56,5.46,5.46,0,0,1,2.89.91l-1,2.61a4,4,0,0,0-2.06-.61,2.67,2.67,0,0,0-1.66.55,3,3,0,0,0-1,1.54,11,11,0,0,0-.47,3.28v8.69Z" fill="#4c5054"/><polygon points="260.98 167.58 206.78 157.05 206.78 74.64 260.98 64.02 260.98 167.58" fill="#414142"/><polygon points="265.71 167.58 319.99 157.05 319.99 74.64 265.71 64.02 265.71 167.58" fill="#f63"/><path d="M291.42,76.53c1.87.41,2.77.57,4.64.9V91.66c-5.45,5.35-8.14,8.23-13.59,14.48,5.45.25,8.14.33,13.59.57v14.07c7.49-.25,11.23-.33,18.55-.58a231.13,231.13,0,0,0-18.55,21.39v11.1c-1.87.42-2.77.58-4.64.91V140.69c5.45-6.91,8.14-10.2,13.51-16.21-5.45.33-8.14.41-13.59.74V110.74l-18.55-.41a234.75,234.75,0,0,1,18.55-20.81V83.6C291.42,80.8,291.42,79.41,291.42,76.53Z" fill="#fff"/><circle cx="679.04" cy="120.89" r="52.93" fill="#d0f1f7"/><path d="M679,174.82A53.93,53.93,0,1,1,733,120.89,54,54,0,0,1,679,174.82ZM679,69A51.93,51.93,0,1,0,731,120.89,52,52,0,0,0,679,69Z" fill="#4c5054"/><rect x="678.04" y="67.96" width="2" height="105.87" fill="#4c5054"/><rect x="626.11" y="119.89" width="105.86" height="2" fill="#4c5054"/><path d="M676.07,174.29c-15.42-9.52-25.38-30.56-25.38-53.6,0-22.65,9.73-43.54,24.78-53.23l1.08,1.69c-14.49,9.32-23.86,29.55-23.86,51.54,0,22.36,9.59,42.73,24.43,51.9Z" fill="#4c5054"/><path d="M681.83,174.29l-1.05-1.7c14.84-9.17,24.43-29.54,24.43-51.9,0-22-9.36-42.22-23.85-51.54l1.08-1.69c15,9.69,24.77,30.58,24.77,53.23C707.21,143.73,697.25,164.77,681.83,174.29Z" fill="#4c5054"/><path d="M679.28,104.75A57,57,0,0,1,637.93,87.2l1.44-1.39a55.49,55.49,0,0,0,79.16.68l1.41,1.41A57.09,57.09,0,0,1,679.28,104.75Z" fill="#4c5054"/><path d="M718.52,155.22a55.5,55.5,0,0,0-79.17-.68l-1.41-1.41a57.49,57.49,0,0,1,82,.7Z" fill="#4c5054"/><path d="M465.16,425.94a56.66,56.66,0,0,1,0-113.31" fill="#fcf1e0"/><path d="M465.16,426.94a57.66,57.66,0,0,1,0-115.31v2a55.66,55.66,0,0,0,0,111.31Z" fill="#4c5054"/><path d="M465.16,312.63a56.66,56.66,0,0,1,0,113.31" fill="#f4ae96"/><path d="M465.16,426.94v-2a55.66,55.66,0,0,0,0-111.31v-2a57.66,57.66,0,0,1,0,115.31Z" fill="#4c5054"/><rect x="464.16" y="312.63" width="2" height="113.3" fill="#4c5054"/><rect x="410.58" y="368.28" width="54.37" height="2" fill="#4c5054"/><path d="M462,426.38c-16.48-10.18-27.13-32.68-27.13-57.31,0-24.22,10.4-46.56,26.48-56.91l1.09,1.68c-15.53,10-25.57,31.67-25.57,55.23,0,23.95,10.28,45.78,26.18,55.61Z" fill="#4c5054"/><path d="M465.42,351.94a61,61,0,0,1-44.21-18.76l1.44-1.39a59,59,0,0,0,42.77,18.15Z" fill="#4c5054"/><path d="M422.64,405.25l-1.42-1.41a61,61,0,0,1,43.47-18v2A59,59,0,0,0,422.64,405.25Z" fill="#4c5054"/><polygon points="492.06 403.41 490.06 403.41 490.06 389.92 501.94 376.91 490.06 376.9 490.06 364.61 475.95 364.6 490.06 349.14 490.06 336.34 492.06 336.34 492.06 349.92 480.48 362.61 492.06 362.61 492.06 374.91 506.48 374.92 492.06 390.7 492.06 403.41" fill="#4c5054"/><polygon points="404.73 292.24 369.99 289.82 377.37 282.45 305.54 210.62 311.13 205.04 283.06 203.08 285.02 231.14 290.72 225.45 338.42 273.15 337 274.56 290.72 228.28 283.33 235.66 280.91 200.93 315.64 203.35 308.37 210.62 380.19 282.44 374.51 288.13 402.57 290.09 400.62 262.03 394.92 267.72 349.42 222.23 350.84 220.81 394.92 264.9 402.31 257.51 404.73 292.24" fill="#4c5054"/><polygon points="524.91 292.24 527.33 257.51 534.72 264.9 581 218.61 582.42 220.03 534.72 267.72 529.02 262.03 527.07 290.09 555.13 288.13 549.54 282.55 621.37 210.72 613.99 203.35 648.73 200.93 646.31 235.66 638.92 228.28 594.84 272.36 593.42 270.94 638.92 225.45 644.62 231.14 646.57 203.08 618.51 205.04 624.19 210.73 623.49 211.43 552.37 282.55 559.64 289.82 524.91 292.24" fill="#4c5054"/><polygon points="380.21 149.9 353.94 127.05 380.21 104.2 380.21 114.49 561.79 114.49 561.79 122.53 583.01 104.07 561.79 85.61 561.79 93.67 417.45 93.67 417.45 91.67 559.79 91.67 559.79 81.22 586.06 104.07 559.79 126.92 559.79 116.49 378.21 116.49 378.21 108.59 356.99 127.05 378.21 145.51 378.21 137.46 525.67 137.46 525.67 139.46 380.21 139.46 380.21 149.9" fill="#4c5054"/></svg>