<svg xmlns="http://www.w3.org/2000/svg" width="940" height="518.64" viewBox="0 0 940 518.64"><title>DAST page graphic</title><g style="isolation:isolate"><rect x="327.68" y="62.7" width="284.64" height="168.03" fill="#fff"/><path d="M352.74,119.9v-2.09h-2.19a.53.53,0,0,1-.39-.14.67.67,0,0,1-.13-.43.65.65,0,0,1,.12-.46.55.55,0,0,1,.44-.13h3.82a.41.41,0,0,1,.34.15.75.75,0,0,1,.11.44.58.58,0,0,1-.15.45.84.84,0,0,1-.52.12h-.11v2.66a.8.8,0,0,1-.05.33.6.6,0,0,1-.22.18,5,5,0,0,1-1.46.51,9.17,9.17,0,0,1-2,.21,5.07,5.07,0,0,1-3.83-1.51,5.43,5.43,0,0,1-1.46-3.94,5.75,5.75,0,0,1,1.43-4,4.66,4.66,0,0,1,3.63-1.59,5.55,5.55,0,0,1,1.21.14,8,8,0,0,1,1.26.41.71.71,0,0,1,.24-.33.7.7,0,0,1,.4-.1.58.58,0,0,1,.56.25,2.94,2.94,0,0,1,.13,1.14v1.2a.9.9,0,0,1-.15.6.64.64,0,0,1-.52.17c-.31,0-.53-.18-.66-.56l-.12-.26a2.43,2.43,0,0,0-.93-1.07,2.54,2.54,0,0,0-1.4-.38,3.11,3.11,0,0,0-2.52,1.14,5.44,5.44,0,0,0,.09,6.27,3.52,3.52,0,0,0,2.78,1.18,4.15,4.15,0,0,0,1-.13A6.27,6.27,0,0,0,352.74,119.9Z" fill="#4c5054"/><path d="M357,121.43h-.41a.66.66,0,0,1-.49-.16.61.61,0,0,1-.16-.47.55.55,0,0,1,.19-.49,2,2,0,0,1,.87-.12h.57v-8H357a1.74,1.74,0,0,1-.86-.14.57.57,0,0,1-.2-.5.62.62,0,0,1,.16-.48.73.73,0,0,1,.5-.15h7.7a.55.55,0,0,1,.45.18.79.79,0,0,1,.16.52v2.09a1.08,1.08,0,0,1-.14.63.54.54,0,0,1-.47.18.56.56,0,0,1-.5-.19,1.81,1.81,0,0,1-.14-.88v-1.26H359v3h2.32v-.46a1.35,1.35,0,0,1,.12-.67.53.53,0,0,1,.45-.18.44.44,0,0,1,.43.2,1.9,1.9,0,0,1,.12.85v1.64a1.7,1.7,0,0,1-.13.85.5.5,0,0,1-.44.19.45.45,0,0,1-.44-.22,1.9,1.9,0,0,1-.11-.82v-.31H359v3.92h4.7v-1.44a1.76,1.76,0,0,1,.14-.87.73.73,0,0,1,1,0,1.21,1.21,0,0,1,.14.68v2.23a.69.69,0,0,1-.16.48.57.57,0,0,1-.45.17Z" fill="#4c5054"/><path d="M368.34,114.52a1.72,1.72,0,0,1-.15.85.65.65,0,0,1-.54.18.6.6,0,0,1-.46-.17.66.66,0,0,1-.16-.48,3.51,3.51,0,0,0,0-.41l.09-2.92a.66.66,0,0,1,.18-.47.68.68,0,0,1,.49-.14h7.68a.68.68,0,0,1,.49.14.65.65,0,0,1,.17.47l.1,2.92a2.91,2.91,0,0,0,0,.3v.13a.61.61,0,0,1-.16.47.71.71,0,0,1-.51.16.56.56,0,0,1-.48-.18,1.72,1.72,0,0,1-.15-.85l-.09-2.29h-2.54v8H374a.79.79,0,0,1,.54.14.6.6,0,0,1,.17.47.68.68,0,0,1-.16.47.61.61,0,0,1-.46.16h-5a.61.61,0,0,1-.46-.16.68.68,0,0,1-.16-.47.56.56,0,0,1,.18-.47.88.88,0,0,1,.58-.14H371v-8h-2.53Z" fill="#4c5054"/><path d="M380.51,121.67a2.11,2.11,0,0,1-.36.6.6.6,0,0,1-.42.16.61.61,0,0,1-.43-.18.6.6,0,0,1-.18-.44,1,1,0,0,1,0-.16c0-.06,0-.13.07-.2l5.52-11.88a2.17,2.17,0,0,1,.38-.62.58.58,0,0,1,.41-.17.61.61,0,0,1,.45.18.59.59,0,0,1,.19.42,1.12,1.12,0,0,1-.09.33Z" fill="#4c5054"/><path d="M396.63,116.51a4.19,4.19,0,0,0-.22-1.68.8.8,0,0,0-.77-.44,1.2,1.2,0,0,0-1,.57,2.75,2.75,0,0,0-.38,1.55v3.68h.16a1.43,1.43,0,0,1,.71.12.57.57,0,0,1,.18.49.65.65,0,0,1-.15.47.59.59,0,0,1-.46.16h-1.12a.63.63,0,0,1-.52-.18,1.39,1.39,0,0,1-.13-.76v-4.67a1.63,1.63,0,0,0-.3-1,1,1,0,0,0-.83-.39,1.2,1.2,0,0,0-.72.24,1.66,1.66,0,0,0-.57.69v4.87h.32a1.3,1.3,0,0,1,.71.13.56.56,0,0,1,.18.48.64.64,0,0,1-.15.49.85.85,0,0,1-.57.14h-2.34a.74.74,0,0,1-.51-.15.65.65,0,0,1-.16-.48.55.55,0,0,1,.2-.49,1.83,1.83,0,0,1,.81-.12h.17v-5.67H389a1.76,1.76,0,0,1-.83-.14.55.55,0,0,1-.23-.5.59.59,0,0,1,.18-.46.8.8,0,0,1,.53-.15H390a.54.54,0,0,1,.39.1.84.84,0,0,1,.11.43,2.56,2.56,0,0,1,.77-.58,2.35,2.35,0,0,1,.94-.18,1.76,1.76,0,0,1,1,.27,1.58,1.58,0,0,1,.6.81,2.47,2.47,0,0,1,.86-.82,2.33,2.33,0,0,1,1.11-.26,1.92,1.92,0,0,1,1.67.74,4.27,4.27,0,0,1,.52,2.4v4h.14a1.34,1.34,0,0,1,.73.13.57.57,0,0,1,.19.48.65.65,0,0,1-.16.47.64.64,0,0,1-.47.16h-1.07a.62.62,0,0,1-.52-.21,1.1,1.1,0,0,1-.17-.67Z" fill="#4c5054"/><path d="M403.55,123.69h.38a1.87,1.87,0,0,1,.87.14.54.54,0,0,1,.23.5.61.61,0,0,1-.18.47.82.82,0,0,1-.53.16h-4.07a.88.88,0,0,1-.58-.15.59.59,0,0,1-.16-.48.65.65,0,0,1,.17-.48.79.79,0,0,1,.52-.16h1.92l1.43-2.82-3.25-6.35a1.6,1.6,0,0,1-.79-.14.55.55,0,0,1-.22-.5.59.59,0,0,1,.18-.46.78.78,0,0,1,.53-.15h2.46a1.11,1.11,0,0,1,.66.14.58.58,0,0,1,.17.47.55.55,0,0,1-.22.5,1.69,1.69,0,0,1-.81.14h-.33l2.39,4.87,2.44-4.87h-.34a1.78,1.78,0,0,1-.84-.14.53.53,0,0,1-.23-.5.55.55,0,0,1,.17-.47,1.12,1.12,0,0,1,.67-.14h2.18a.78.78,0,0,1,.53.15.58.58,0,0,1,.17.46.55.55,0,0,1-.19.48,1.44,1.44,0,0,1-.69.16Z" fill="#4c5054"/><path d="M428,120.31a5.21,5.21,0,0,1-1.58,1,4.62,4.62,0,0,1-1.75.34,3,3,0,0,1-2.12-.73,2.69,2.69,0,0,1,.26-4.07,5.15,5.15,0,0,1,3-.77,9,9,0,0,1,1,.06c.35,0,.7.12,1.07.21v-.06a2,2,0,0,0-.49-1.5,2,2,0,0,0-1.51-.49,4,4,0,0,0-1.53.37,3.8,3.8,0,0,1-1.13.38.51.51,0,0,1-.42-.21.85.85,0,0,1-.17-.54c0-.34.33-.64,1-.88a7.29,7.29,0,0,1,2.49-.36,2.8,2.8,0,0,1,3.15,3.12v4h.43a1.76,1.76,0,0,1,.84.13.53.53,0,0,1,.21.48.58.58,0,0,1-.18.47.73.73,0,0,1-.53.16h-1.38a.58.58,0,0,1-.41-.15.76.76,0,0,1-.21-.43Zm-.07-2.78a6.19,6.19,0,0,0-.94-.24,5.67,5.67,0,0,0-.91-.07,4.2,4.2,0,0,0-2.14.46,1.37,1.37,0,0,0-.79,1.23,1.2,1.2,0,0,0,.49,1,2,2,0,0,0,1.25.39,3.83,3.83,0,0,0,2.08-.59c.64-.39,1-.8,1-1.22Z" fill="#4c5054"/><path d="M439.43,113.8v0a.51.51,0,0,1,.17-.42.81.81,0,0,1,.52-.14.55.55,0,0,1,.5.21,1.84,1.84,0,0,1,.14.88v1.64a.66.66,0,0,1-.17.49.69.69,0,0,1-.51.16.65.65,0,0,1-.41-.13,2.77,2.77,0,0,1-.42-.57,3,3,0,0,0-1-1.09,2.64,2.64,0,0,0-1.39-.36,3.16,3.16,0,0,0-2.24.81,2.77,2.77,0,0,0-.86,2.1,2.92,2.92,0,0,0,.83,2.15,2.85,2.85,0,0,0,2.12.84,3.81,3.81,0,0,0,1.13-.17,3.63,3.63,0,0,0,1-.49l.45-.32a1.61,1.61,0,0,1,.9-.47.64.64,0,0,1,.45.17.63.63,0,0,1,.17.45c0,.46-.44.94-1.32,1.42a5.65,5.65,0,0,1-2.8.73,4.43,4.43,0,0,1-3.2-1.23,4.33,4.33,0,0,1,0-6.13,4.4,4.4,0,0,1,3.18-1.23,5.28,5.28,0,0,1,1.35.18A7.93,7.93,0,0,1,439.43,113.8Z" fill="#4c5054"/><path d="M450.28,113.8v0a.51.51,0,0,1,.17-.42.83.83,0,0,1,.52-.14.54.54,0,0,1,.5.21,1.84,1.84,0,0,1,.14.88v1.64a.66.66,0,0,1-.17.49.68.68,0,0,1-.5.16.63.63,0,0,1-.41-.13,2.18,2.18,0,0,1-.42-.57,3.1,3.1,0,0,0-1-1.09,2.67,2.67,0,0,0-1.39-.36,3.13,3.13,0,0,0-2.24.81,2.77,2.77,0,0,0-.86,2.1,2.91,2.91,0,0,0,.82,2.15,2.85,2.85,0,0,0,2.13.84,3.75,3.75,0,0,0,1.12-.17,3.69,3.69,0,0,0,1-.49l.45-.32a1.61,1.61,0,0,1,.9-.47.6.6,0,0,1,.44.17.6.6,0,0,1,.18.45c0,.46-.45.94-1.33,1.42a5.65,5.65,0,0,1-2.8.73,4.41,4.41,0,0,1-3.19-1.23,4.07,4.07,0,0,1-1.28-3.06,4.12,4.12,0,0,1,1.27-3.07,4.4,4.4,0,0,1,3.18-1.23,5.22,5.22,0,0,1,1.35.18A7.65,7.65,0,0,1,450.28,113.8Z" fill="#4c5054"/><path d="M463.12,117.36a4,4,0,0,1-1.29,3.09,5.26,5.26,0,0,1-6.69,0,4.35,4.35,0,0,1,0-6.18,5.27,5.27,0,0,1,6.68,0A4,4,0,0,1,463.12,117.36Zm-4.64,3a3,3,0,0,0,2.23-.86,3.22,3.22,0,0,0,0-4.4,3.08,3.08,0,0,0-2.23-.86,3,3,0,0,0-2.22.86,3,3,0,0,0-.87,2.2,3,3,0,0,0,.87,2.2A3,3,0,0,0,458.48,120.41Z" fill="#4c5054"/><path d="M467.14,118.17a2.39,2.39,0,0,0,.46,1.63,2,2,0,0,0,1.49.51,2.39,2.39,0,0,0,1.65-.61,2,2,0,0,0,.68-1.53v-3.65h-1.21a.7.7,0,0,1-.5-.15.61.61,0,0,1-.15-.45.64.64,0,0,1,.16-.49.77.77,0,0,1,.54-.16h1.88a.63.63,0,0,1,.48.15,1.17,1.17,0,0,1,.13.71v6.06h.41a1,1,0,0,1,.62.14.53.53,0,0,1,.19.47.58.58,0,0,1-.18.47.74.74,0,0,1-.52.16h-1.35a.58.58,0,0,1-.37-.1.29.29,0,0,1-.13-.26v-.6a6.75,6.75,0,0,1-1.45.89,3.28,3.28,0,0,1-1.28.25,2.87,2.87,0,0,1-2.19-.78,3.31,3.31,0,0,1-.72-2.34v-4h-.19a1.71,1.71,0,0,1-.82-.14.55.55,0,0,1-.22-.5.62.62,0,0,1,.17-.46.8.8,0,0,1,.53-.15h1.34a.61.61,0,0,1,.43.12.87.87,0,0,1,.12.55Z" fill="#4c5054"/><path d="M476.9,120.19v-5.67h-.16a1.64,1.64,0,0,1-.83-.14.53.53,0,0,1-.22-.49.56.56,0,0,1,.18-.47.94.94,0,0,1,.6-.15h1.26a.61.61,0,0,1,.38.1.32.32,0,0,1,.13.26v.6a5.08,5.08,0,0,1,1.27-.89,3.2,3.2,0,0,1,1.32-.28,2.72,2.72,0,0,1,2.09.83,3.25,3.25,0,0,1,.77,2.29v4h.42a1.08,1.08,0,0,1,.64.14.54.54,0,0,1,.19.47.57.57,0,0,1-.21.49,1.43,1.43,0,0,1-.74.14H482a1.29,1.29,0,0,1-.73-.13.66.66,0,0,1-.16-.5.54.54,0,0,1,.19-.48,1.28,1.28,0,0,1,.7-.13h.31v-3.68a2.33,2.33,0,0,0-.47-1.58,1.69,1.69,0,0,0-1.36-.54,2.31,2.31,0,0,0-1.59.61,1.94,1.94,0,0,0-.69,1.51v3.68h.31a1.3,1.3,0,0,1,.71.13.54.54,0,0,1,.19.48.63.63,0,0,1-.16.5,1.43,1.43,0,0,1-.78.13h-2.08a.86.86,0,0,1-.55-.15.62.62,0,0,1-.18-.48.53.53,0,0,1,.21-.49,1.83,1.83,0,0,1,.81-.12Z" fill="#4c5054"/><path d="M493.46,113.76a1,1,0,0,1,.63.16.54.54,0,0,1,.2.47.6.6,0,0,1-.19.47.87.87,0,0,1-.56.15H490V118a3.3,3.3,0,0,0,.37,1.91,1.6,1.6,0,0,0,1.29.46,5.22,5.22,0,0,0,1.92-.47,5.8,5.8,0,0,1,1.39-.47.58.58,0,0,1,.42.18.6.6,0,0,1,.17.43.7.7,0,0,1-.22.51,2.33,2.33,0,0,1-.73.42,11.48,11.48,0,0,1-1.56.5,5.62,5.62,0,0,1-1.3.16,4.09,4.09,0,0,1-1.74-.33,2.2,2.2,0,0,1-1.05-1,2.41,2.41,0,0,1-.25-.73,8.38,8.38,0,0,1-.07-1.31V115h-1.5a.79.79,0,0,1-.54-.15.55.55,0,0,1-.17-.47.52.52,0,0,1,.23-.49,2.24,2.24,0,0,1,1-.14h1v-2.27a.84.84,0,0,1,.16-.57.66.66,0,0,1,.51-.18.62.62,0,0,1,.54.22,2.15,2.15,0,0,1,.15,1v1.79Z" fill="#4c5054"/><path d="M510.64,120.19h.59a1.36,1.36,0,0,1,.74.14.52.52,0,0,1,.21.47.55.55,0,0,1-.19.49,1.54,1.54,0,0,1-.81.14h-2.33a.66.66,0,0,1-.49-.16.61.61,0,0,1-.16-.47.54.54,0,0,1,.19-.48,1.32,1.32,0,0,1,.72-.13h.15v-8h-.14a1.35,1.35,0,0,1-.72-.14.56.56,0,0,1-.2-.5.62.62,0,0,1,.16-.48.74.74,0,0,1,.51-.15h2.22a1.89,1.89,0,0,1,.9.13.57.57,0,0,1,.19.5.54.54,0,0,1-.24.5,2,2,0,0,1-.9.14h-.4v3.07h4.23v-3.07h-.6a1.33,1.33,0,0,1-.72-.15.56.56,0,0,1-.21-.49.55.55,0,0,1,.2-.5,2.11,2.11,0,0,1,1-.13h2.16a.65.65,0,0,1,.48.16.61.61,0,0,1,.16.47.6.6,0,0,1-.18.49,1.12,1.12,0,0,1-.67.15h-.21v8h.14a1.38,1.38,0,0,1,.73.13.54.54,0,0,1,.19.48.57.57,0,0,1-.18.49,1.71,1.71,0,0,1-.86.14h-1.83a1.87,1.87,0,0,1-.91-.14.55.55,0,0,1-.19-.49.5.5,0,0,1,.23-.48,1.91,1.91,0,0,1,.87-.13h.43v-3.68h-4.23Z" fill="#4c5054"/><path d="M528.25,117.36a4,4,0,0,1-1.29,3.09,5.26,5.26,0,0,1-6.69,0,4.35,4.35,0,0,1,0-6.18,5.27,5.27,0,0,1,6.68,0A4,4,0,0,1,528.25,117.36Zm-4.64,3a3.06,3.06,0,0,0,2.23-.86,3.2,3.2,0,0,0,0-4.4,3.3,3.3,0,0,0-4.44,0,3.23,3.23,0,0,0,0,4.4A3,3,0,0,0,523.61,120.41Z" fill="#4c5054"/><path d="M530.61,120.8v-1.58a.8.8,0,0,1,.15-.55.57.57,0,0,1,.47-.17c.24,0,.43.16.57.49a2.71,2.71,0,0,0,.26.45,2.5,2.5,0,0,0,1.1.77,4.28,4.28,0,0,0,1.59.28,2.62,2.62,0,0,0,1.51-.38,1.15,1.15,0,0,0,.56-1,1,1,0,0,0-.45-.9,3.45,3.45,0,0,0-1.56-.26h-.49a4.94,4.94,0,0,1-2.74-.63,2,2,0,0,1-1-1.82,2.1,2.1,0,0,1,.92-1.81,4.49,4.49,0,0,1,2.59-.64,5.17,5.17,0,0,1,1.39.19l.74.19a1,1,0,0,0,.37-.17,1,1,0,0,1,.54-.18.52.52,0,0,1,.45.22,1.21,1.21,0,0,1,.15.67v1a1.2,1.2,0,0,1-.15.68.51.51,0,0,1-.45.2c-.17,0-.39-.15-.65-.45s-.33-.36-.45-.47a3.13,3.13,0,0,0-1-.62,3.85,3.85,0,0,0-1.24-.19,2.19,2.19,0,0,0-1.34.37,1.09,1.09,0,0,0-.51.93.8.8,0,0,0,.52.79,6.76,6.76,0,0,0,2.24.28,5,5,0,0,1,2.69.64,2.11,2.11,0,0,1,.85,1.84,2.3,2.3,0,0,1-.94,1.91,4,4,0,0,1-2.52.71,8,8,0,0,1-1.13-.09c-.41-.06-.93-.16-1.55-.31a5.41,5.41,0,0,1-.53.3.89.89,0,0,1-.37.1.54.54,0,0,1-.47-.21A1,1,0,0,1,530.61,120.8Z" fill="#4c5054"/><path d="M547.73,113.76a1,1,0,0,1,.63.16.54.54,0,0,1,.2.47.57.57,0,0,1-.19.47.86.86,0,0,1-.55.15h-3.58V118a3.28,3.28,0,0,0,.38,1.91,1.58,1.58,0,0,0,1.28.46,5.22,5.22,0,0,0,1.93-.47,5.79,5.79,0,0,1,1.38-.47.54.54,0,0,1,.42.18.56.56,0,0,1,.17.43.73.73,0,0,1-.21.51,2.41,2.41,0,0,1-.74.42,11.48,11.48,0,0,1-1.56.5,5.62,5.62,0,0,1-1.3.16,4.09,4.09,0,0,1-1.74-.33,2.22,2.22,0,0,1-1-1,2,2,0,0,1-.25-.73,7.08,7.08,0,0,1-.08-1.31V115h-1.5a.79.79,0,0,1-.54-.15.58.58,0,0,1-.17-.47.52.52,0,0,1,.23-.49,2.24,2.24,0,0,1,1-.14h1v-2.27a.84.84,0,0,1,.16-.57.66.66,0,0,1,.51-.18.62.62,0,0,1,.54.22,2.15,2.15,0,0,1,.15,1v1.79Z" fill="#4c5054"/><path d="M554.44,115.1a1.46,1.46,0,0,1,.48-1.13,2,2,0,0,1,2.51,0,1.59,1.59,0,0,1,0,2.28,1.8,1.8,0,0,1-1.26.43,1.78,1.78,0,0,1-1.25-.43A1.47,1.47,0,0,1,554.44,115.1Zm0,4.88a1.47,1.47,0,0,1,.48-1.13,1.8,1.8,0,0,1,1.25-.44,1.77,1.77,0,0,1,1.26.43,1.59,1.59,0,0,1,0,2.28,1.8,1.8,0,0,1-1.26.43,1.78,1.78,0,0,1-1.25-.43A1.47,1.47,0,0,1,554.44,120Z" fill="#4c5054"/><path d="M565.29,120a1.48,1.48,0,0,1,.49-1.13,1.78,1.78,0,0,1,1.25-.44,1.8,1.8,0,0,1,1.26.43,1.59,1.59,0,0,1,0,2.28,1.84,1.84,0,0,1-1.26.43,1.8,1.8,0,0,1-1.26-.43A1.47,1.47,0,0,1,565.29,120Z" fill="#4c5054"/><path d="M576.15,120a1.47,1.47,0,0,1,.48-1.13,1.8,1.8,0,0,1,1.25-.44,1.77,1.77,0,0,1,1.26.43,1.59,1.59,0,0,1,0,2.28,1.8,1.8,0,0,1-1.26.43,1.76,1.76,0,0,1-1.25-.43A1.47,1.47,0,0,1,576.15,120Z" fill="#4c5054"/><path d="M587,120a1.48,1.48,0,0,1,.49-1.13,1.78,1.78,0,0,1,1.25-.44,1.8,1.8,0,0,1,1.26.43,1.58,1.58,0,0,1,0,2.28,2,2,0,0,1-2.51,0A1.47,1.47,0,0,1,587,120Z" fill="#4c5054"/><rect x="327.98" y="62.55" width="284.04" height="30.4" fill="#c4e6df"/><path d="M346.62,83.18v-9h-.17a1.76,1.76,0,0,1-.83-.14.55.55,0,0,1-.22-.5.58.58,0,0,1,.18-.47.74.74,0,0,1,.52-.16h1.35a.68.68,0,0,1,.37.09.32.32,0,0,1,.13.27v4a4.72,4.72,0,0,1,1.28-.89,3.13,3.13,0,0,1,1.31-.29,2.69,2.69,0,0,1,2.09.83,3.28,3.28,0,0,1,.77,2.3v4h.42a1.08,1.08,0,0,1,.64.15.54.54,0,0,1,.19.46.65.65,0,0,1-.17.48.77.77,0,0,1-.54.16h-2.35a.82.82,0,0,1-.56-.14.66.66,0,0,1-.15-.5.56.56,0,0,1,.18-.48,1.39,1.39,0,0,1,.69-.13h.31V79.51a2.36,2.36,0,0,0-.46-1.58,1.73,1.73,0,0,0-1.37-.54,2.28,2.28,0,0,0-1.59.61,1.93,1.93,0,0,0-.69,1.51v3.67h.31a1.4,1.4,0,0,1,.71.13.54.54,0,0,1,.19.48.66.66,0,0,1-.15.5.82.82,0,0,1-.56.14H346.1a.69.69,0,0,1-.51-.16.62.62,0,0,1-.18-.48.53.53,0,0,1,.21-.48,1.8,1.8,0,0,1,.81-.13Z" fill="#4c5054"/><path d="M363.2,76.76a1,1,0,0,1,.63.15.54.54,0,0,1,.2.48.57.57,0,0,1-.18.46.83.83,0,0,1-.56.16h-3.58V81a3.24,3.24,0,0,0,.38,1.9,1.56,1.56,0,0,0,1.28.46,5.18,5.18,0,0,0,1.93-.46,5.34,5.34,0,0,1,1.39-.47.61.61,0,0,1,.42.17.64.64,0,0,1,.17.44.66.66,0,0,1-.22.5,2,2,0,0,1-.74.42,11.12,11.12,0,0,1-1.55.51,6.32,6.32,0,0,1-1.31.16,4,4,0,0,1-1.73-.33,2.2,2.2,0,0,1-1.05-1,2.25,2.25,0,0,1-.25-.73,8.19,8.19,0,0,1-.08-1.31V78h-1.5a.79.79,0,0,1-.54-.15.59.59,0,0,1-.16-.47.52.52,0,0,1,.23-.5,2.42,2.42,0,0,1,1-.13h1V74.48a.81.81,0,0,1,.17-.56.64.64,0,0,1,.5-.18.6.6,0,0,1,.54.22,2.12,2.12,0,0,1,.15,1v1.79Z" fill="#4c5054"/><path d="M374.06,76.76a1,1,0,0,1,.63.15.57.57,0,0,1,.2.48.55.55,0,0,1-.19.46.8.8,0,0,1-.55.16h-3.58V81a3.26,3.26,0,0,0,.37,1.9,1.57,1.57,0,0,0,1.29.46,5.14,5.14,0,0,0,1.92-.46,5.34,5.34,0,0,1,1.39-.47.57.57,0,0,1,.42.17.64.64,0,0,1,.17.44.69.69,0,0,1-.21.5,2.06,2.06,0,0,1-.74.42,11.65,11.65,0,0,1-1.56.51,6.23,6.23,0,0,1-1.3.16,4.09,4.09,0,0,1-1.74-.33,2.2,2.2,0,0,1-1.05-1,2.51,2.51,0,0,1-.25-.73,8.46,8.46,0,0,1-.07-1.31V78h-1.5a.79.79,0,0,1-.54-.15.6.6,0,0,1-.17-.47.54.54,0,0,1,.23-.5,2.46,2.46,0,0,1,1-.13h1V74.48a.81.81,0,0,1,.16-.56.66.66,0,0,1,.51-.18.6.6,0,0,1,.54.22,2.12,2.12,0,0,1,.15,1v1.79Z" fill="#4c5054"/><path d="M380.22,86.69h2.12a.68.68,0,0,1,.5.16.58.58,0,0,1,.17.47.61.61,0,0,1-.16.49.93.93,0,0,1-.58.14h-3.89a.77.77,0,0,1-.54-.16.58.58,0,0,1-.18-.47.53.53,0,0,1,.23-.49,1.73,1.73,0,0,1,.83-.14h.17V77.52h-.17a1.73,1.73,0,0,1-.83-.14.54.54,0,0,1-.23-.5.57.57,0,0,1,.18-.46.83.83,0,0,1,.54-.15h1.34a.64.64,0,0,1,.38.09.3.3,0,0,1,.12.27v.86a3.83,3.83,0,0,1,1.33-.93,3.93,3.93,0,0,1,1.57-.31,4,4,0,0,1,3,1.2,4.11,4.11,0,0,1,1.19,3,3.86,3.86,0,0,1-1.13,2.86,3.94,3.94,0,0,1-2.89,1.13,4.23,4.23,0,0,1-1.72-.34,3.42,3.42,0,0,1-1.32-.94ZM383,83.15a2.72,2.72,0,0,0,2-.78,2.9,2.9,0,0,0,0-4,2.75,2.75,0,0,0-2-.78,2.71,2.71,0,0,0-2,.78,2.77,2.77,0,0,0,2,4.76Z" fill="#4c5054"/><path d="M389.5,83.79V82.22a.85.85,0,0,1,.15-.56.59.59,0,0,1,.47-.16c.24,0,.43.16.58.49a2.79,2.79,0,0,0,.25.45,2.48,2.48,0,0,0,1.1.76,4.11,4.11,0,0,0,1.6.29,2.61,2.61,0,0,0,1.5-.38,1.15,1.15,0,0,0,.56-1,1,1,0,0,0-.45-.89A3.42,3.42,0,0,0,393.7,81h-.49a4.94,4.94,0,0,1-2.74-.63,2.06,2.06,0,0,1-1-1.82,2.09,2.09,0,0,1,.92-1.81,4.5,4.5,0,0,1,2.6-.65,5.17,5.17,0,0,1,1.38.2l.75.18a.92.92,0,0,0,.37-.17,1,1,0,0,1,.53-.17.5.5,0,0,1,.45.22,1.19,1.19,0,0,1,.15.66v1a1.26,1.26,0,0,1-.14.67.52.52,0,0,1-.46.21c-.17,0-.39-.15-.65-.45A5.38,5.38,0,0,0,395,78a2.87,2.87,0,0,0-1-.62,3.59,3.59,0,0,0-1.24-.19,2.19,2.19,0,0,0-1.34.37,1.09,1.09,0,0,0-.51.93.82.82,0,0,0,.52.79,7.07,7.07,0,0,0,2.25.28,4.92,4.92,0,0,1,2.68.64,2.08,2.08,0,0,1,.85,1.84,2.28,2.28,0,0,1-.94,1.91,4.08,4.08,0,0,1-2.52.71,8,8,0,0,1-1.13-.09c-.41-.06-.93-.17-1.55-.32a4.13,4.13,0,0,1-.53.31.89.89,0,0,1-.37.1.54.54,0,0,1-.47-.22A1,1,0,0,1,389.5,83.79Z" fill="#4c5054"/><path d="M402.48,78.09A1.49,1.49,0,0,1,403,77a2,2,0,0,1,2.51,0,1.58,1.58,0,0,1,0,2.27,1.81,1.81,0,0,1-1.26.44,1.76,1.76,0,0,1-1.25-.44A1.44,1.44,0,0,1,402.48,78.09Zm0,4.89a1.46,1.46,0,0,1,.48-1.13,1.75,1.75,0,0,1,1.25-.44,1.8,1.8,0,0,1,1.26.43,1.59,1.59,0,0,1,0,2.28,1.8,1.8,0,0,1-1.26.43,1.76,1.76,0,0,1-1.25-.43A1.47,1.47,0,0,1,402.48,83Z" fill="#4c5054"/><path d="M413.08,84.67a2.09,2.09,0,0,1-.37.6.62.62,0,0,1-.41.16.58.58,0,0,1-.43-.18.59.59,0,0,1-.19-.44.61.61,0,0,1,0-.17c0-.06,0-.12.07-.19l5.51-11.88a2.49,2.49,0,0,1,.39-.63.59.59,0,0,1,.4-.16.61.61,0,0,1,.45.18.55.55,0,0,1,.19.42,1,1,0,0,1,0,.16,1.22,1.22,0,0,1-.07.17Z" fill="#4c5054"/><path d="M423.93,84.67a1.89,1.89,0,0,1-.37.6.6.6,0,0,1-.84,0,.62.62,0,0,1-.18-.44.56.56,0,0,1,0-.17c0-.06,0-.12.07-.19l5.51-11.88a2.49,2.49,0,0,1,.39-.63.6.6,0,0,1,.41-.16.61.61,0,0,1,.45.18.58.58,0,0,1,.18.42.47.47,0,0,1,0,.16.58.58,0,0,1-.06.17Z" fill="#4c5054"/><path d="M435,83a1.46,1.46,0,0,1,.48-1.13,1.75,1.75,0,0,1,1.25-.44,1.81,1.81,0,0,1,1.27.43,1.49,1.49,0,0,1,.47,1.14,1.47,1.47,0,0,1-.48,1.14,1.8,1.8,0,0,1-1.26.43,1.78,1.78,0,0,1-1.25-.43A1.47,1.47,0,0,1,435,83Z" fill="#4c5054"/><path d="M445.9,83a1.46,1.46,0,0,1,.48-1.13,1.74,1.74,0,0,1,1.25-.44,1.8,1.8,0,0,1,1.26.43,1.59,1.59,0,0,1,0,2.28,2.06,2.06,0,0,1-2.52,0A1.46,1.46,0,0,1,445.9,83Z" fill="#4c5054"/><path d="M456.75,83a1.46,1.46,0,0,1,.48-1.13,2,2,0,0,1,2.51,0,1.59,1.59,0,0,1,0,2.28,1.8,1.8,0,0,1-1.26.43,1.78,1.78,0,0,1-1.25-.43A1.47,1.47,0,0,1,456.75,83Z" fill="#4c5054"/><path d="M613.32,231.73H326.68V61.7H613.32Zm-284.64-2H611.32V63.7H328.68Z" fill="#4c5054"/><path d="M396.34,451V426.61h9.15a11.22,11.22,0,0,1,4.48.74,5.75,5.75,0,0,1,2.64,2.28,6,6,0,0,1,1,3.21,5.57,5.57,0,0,1-.85,2.94,6.06,6.06,0,0,1-2.56,2.23,6.41,6.41,0,0,1,3.4,2.21,6,6,0,0,1,1.19,3.69,7.15,7.15,0,0,1-.73,3.19,6.22,6.22,0,0,1-1.78,2.27,7.47,7.47,0,0,1-2.67,1.2,16.29,16.29,0,0,1-3.93.41Zm3.23-14.13h5.27a12.12,12.12,0,0,0,3.07-.28,3.47,3.47,0,0,0,1.86-1.22,3.51,3.51,0,0,0,.62-2.13,3.89,3.89,0,0,0-.58-2.13,3,3,0,0,0-1.66-1.27,14.29,14.29,0,0,0-3.71-.34h-4.87Zm0,11.25h6.07a15.18,15.18,0,0,0,2.19-.11,5.42,5.42,0,0,0,1.86-.67,3.51,3.51,0,0,0,1.23-1.35,4.29,4.29,0,0,0,.48-2.06,4.05,4.05,0,0,0-.69-2.36,3.68,3.68,0,0,0-1.94-1.42,12.1,12.1,0,0,0-3.57-.41h-5.63Z" fill="#4c5054"/><path d="M430.37,451v-2.59a6.46,6.46,0,0,1-5.6,3,7.16,7.16,0,0,1-2.92-.6,4.87,4.87,0,0,1-2-1.5,5.72,5.72,0,0,1-.92-2.22,15.5,15.5,0,0,1-.18-2.8V433.32h3v9.8a17.6,17.6,0,0,0,.18,3.15,3.14,3.14,0,0,0,1.2,1.86,3.69,3.69,0,0,0,2.26.67,4.94,4.94,0,0,0,2.53-.69,3.85,3.85,0,0,0,1.67-1.88,9.56,9.56,0,0,0,.49-3.45v-9.46h3V451Z" fill="#4c5054"/><path d="M437.7,451V433.32h2.7V436a7.29,7.29,0,0,1,1.9-2.48,3.31,3.31,0,0,1,1.92-.6,5.88,5.88,0,0,1,3.08,1l-1,2.78a4.23,4.23,0,0,0-2.2-.65,2.81,2.81,0,0,0-1.76.59,3.17,3.17,0,0,0-1.11,1.64,11.37,11.37,0,0,0-.5,3.49V451Z" fill="#4c5054"/><path d="M449.08,457.75V433.32h2.72v2.3a6.78,6.78,0,0,1,2.18-2,6,6,0,0,1,2.94-.68,6.94,6.94,0,0,1,4,1.17,7,7,0,0,1,2.61,3.28,12,12,0,0,1,.88,4.65,11.78,11.78,0,0,1-1,4.88,7.38,7.38,0,0,1-2.82,3.32,7.29,7.29,0,0,1-3.9,1.16,5.65,5.65,0,0,1-2.69-.63,6.16,6.16,0,0,1-1.95-1.6v8.6Zm2.71-15.5a7.7,7.7,0,0,0,1.38,5,4.21,4.21,0,0,0,3.34,1.63,4.29,4.29,0,0,0,3.41-1.69c.95-1.12,1.43-2.87,1.43-5.23A7.82,7.82,0,0,0,460,437a4.18,4.18,0,0,0-3.32-1.68,4.32,4.32,0,0,0-3.38,1.79A8,8,0,0,0,451.79,442.25Z" fill="#4c5054"/><path d="M476.76,443.15l3-.27a6.61,6.61,0,0,0,1,3,5.37,5.37,0,0,0,2.45,1.9,9.31,9.31,0,0,0,3.74.72,8.91,8.91,0,0,0,3.26-.55,4.46,4.46,0,0,0,2.1-1.5,3.49,3.49,0,0,0,.69-2.09,3.14,3.14,0,0,0-.67-2,4.91,4.91,0,0,0-2.19-1.44,44.53,44.53,0,0,0-4.34-1.19,21.32,21.32,0,0,1-4.7-1.52,6.53,6.53,0,0,1-2.61-2.27,5.54,5.54,0,0,1-.85-3,6.19,6.19,0,0,1,1.05-3.45,6.47,6.47,0,0,1,3.05-2.44,11.76,11.76,0,0,1,4.48-.83,12.28,12.28,0,0,1,4.78.87,6.93,6.93,0,0,1,3.18,2.57,7.44,7.44,0,0,1,1.2,3.84l-3.1.24a5,5,0,0,0-1.68-3.5A6.62,6.62,0,0,0,486.4,429a6.76,6.76,0,0,0-4.26,1.08,3.18,3.18,0,0,0-1.34,2.58,2.75,2.75,0,0,0,.94,2.16q.94.86,4.87,1.74a32.09,32.09,0,0,1,5.39,1.55,7.41,7.41,0,0,1,3.14,2.49,6,6,0,0,1,1,3.47,6.56,6.56,0,0,1-1.12,3.66,7.33,7.33,0,0,1-3.2,2.68,11.08,11.08,0,0,1-4.69,1,14.08,14.08,0,0,1-5.55-1,7.69,7.69,0,0,1-3.5-2.9A8.16,8.16,0,0,1,476.76,443.15Z" fill="#4c5054"/><path d="M511.75,451v-2.59a6.46,6.46,0,0,1-5.6,3,7.16,7.16,0,0,1-2.92-.6,4.87,4.87,0,0,1-2-1.5,5.72,5.72,0,0,1-.92-2.22,15.29,15.29,0,0,1-.19-2.8V433.32h3v9.8a17.6,17.6,0,0,0,.18,3.15,3.14,3.14,0,0,0,1.2,1.86,3.69,3.69,0,0,0,2.26.67,4.94,4.94,0,0,0,2.53-.69,3.85,3.85,0,0,0,1.67-1.88,9.56,9.56,0,0,0,.49-3.45v-9.46h3V451Z" fill="#4c5054"/><path d="M519.13,430.05v-3.44h3v3.44Zm0,20.93V433.32h3V451Z" fill="#4c5054"/><path d="M533.22,448.3l.43,2.65a11.61,11.61,0,0,1-2.26.26,5.17,5.17,0,0,1-2.53-.51,2.89,2.89,0,0,1-1.26-1.36,10.51,10.51,0,0,1-.37-3.53V435.65H525v-2.33h2.19V429l3-1.79v6.16h3v2.33h-3V446a5.43,5.43,0,0,0,.15,1.64,1.22,1.22,0,0,0,.52.58,1.93,1.93,0,0,0,1,.22A9.65,9.65,0,0,0,533.22,448.3Z" fill="#4c5054"/><path d="M548.23,445.29l3.09.39a7.57,7.57,0,0,1-2.71,4.2,9.17,9.17,0,0,1-11.2-.89,9.33,9.33,0,0,1-2.27-6.69,9.74,9.74,0,0,1,2.3-6.91,7.77,7.77,0,0,1,5.95-2.47,7.56,7.56,0,0,1,5.79,2.42,9.58,9.58,0,0,1,2.24,6.78c0,.18,0,.44,0,.8H538.24a6.79,6.79,0,0,0,1.64,4.45,4.91,4.91,0,0,0,3.69,1.55,4.54,4.54,0,0,0,2.81-.87A5.69,5.69,0,0,0,548.23,445.29Zm-9.83-4.83h9.86a6,6,0,0,0-1.13-3.35,4.58,4.58,0,0,0-3.71-1.72,4.74,4.74,0,0,0-3.46,1.38A5.45,5.45,0,0,0,538.4,440.46Z" fill="#4c5054"/><path d="M758.47,431.25,754,414.5h2.27l2.55,11c.28,1.15.51,2.29.71,3.43.43-1.79.68-2.82.76-3.1l3.18-11.31h2.68l2.4,8.48a44.08,44.08,0,0,1,1.3,5.93c.21-1.06.49-2.27.84-3.65l2.62-10.76h2.23L771,431.25h-2.14l-3.53-12.76c-.3-1.07-.47-1.73-.53-2-.17.77-.33,1.43-.49,2l-3.55,12.76Z" fill="#4c5054"/><path d="M785.27,427.34l2.12.27a5.16,5.16,0,0,1-1.86,2.89,5.66,5.66,0,0,1-3.48,1,5.57,5.57,0,0,1-4.22-1.64,6.42,6.42,0,0,1-1.56-4.6,6.74,6.74,0,0,1,1.58-4.76,5.32,5.32,0,0,1,4.09-1.69,5.19,5.19,0,0,1,4,1.66,6.57,6.57,0,0,1,1.54,4.66c0,.12,0,.31,0,.55H778.4a4.62,4.62,0,0,0,1.13,3.06,3.37,3.37,0,0,0,2.54,1.07,3.15,3.15,0,0,0,1.93-.6A4,4,0,0,0,785.27,427.34ZM778.51,424h6.78a4.09,4.09,0,0,0-.78-2.3,3.15,3.15,0,0,0-2.55-1.19,3.27,3.27,0,0,0-2.38,1A3.78,3.78,0,0,0,778.51,424Z" fill="#4c5054"/><path d="M791.87,431.25H790V414.5H792v6a4.07,4.07,0,0,1,3.33-1.63,5.14,5.14,0,0,1,2.12.45,4.4,4.4,0,0,1,1.64,1.27,6.11,6.11,0,0,1,1,2,8,8,0,0,1,.37,2.47,6.91,6.91,0,0,1-1.54,4.82,4.83,4.83,0,0,1-3.7,1.71,3.87,3.87,0,0,1-3.38-1.8Zm0-6.16a6.39,6.39,0,0,0,.59,3.16,2.94,2.94,0,0,0,5,.41,5.34,5.34,0,0,0,1-3.49,5.49,5.49,0,0,0-.94-3.51,2.89,2.89,0,0,0-2.28-1.13,3,3,0,0,0-2.34,1.17A5.17,5.17,0,0,0,791.85,425.09Z" fill="#4c5054"/><path d="M802.17,427.63l2-.32a2.8,2.8,0,0,0,.95,1.87,3.29,3.29,0,0,0,2.19.66,3.23,3.23,0,0,0,2.1-.58,1.74,1.74,0,0,0,.69-1.36,1.23,1.23,0,0,0-.61-1.09,8.39,8.39,0,0,0-2.1-.7,18.79,18.79,0,0,1-3.14-1,3,3,0,0,1-1.78-2.78,3.29,3.29,0,0,1,1.39-2.65,4,4,0,0,1,1.31-.6,6,6,0,0,1,1.77-.25,7.1,7.1,0,0,1,2.51.41,3.51,3.51,0,0,1,1.6,1.12,4.25,4.25,0,0,1,.7,1.88l-2,.27a2.19,2.19,0,0,0-.79-1.46,2.92,2.92,0,0,0-1.86-.53,3.37,3.37,0,0,0-2,.47,1.38,1.38,0,0,0-.61,1.1,1.21,1.21,0,0,0,.25.72,1.88,1.88,0,0,0,.79.55c.21.07.81.25,1.82.52a25,25,0,0,1,3,1,2.89,2.89,0,0,1,1.84,2.84,3.43,3.43,0,0,1-.6,1.93,3.87,3.87,0,0,1-1.73,1.41,6.32,6.32,0,0,1-2.56.5,5.69,5.69,0,0,1-3.61-1A4.57,4.57,0,0,1,802.17,427.63Z" fill="#4c5054"/><path d="M814.71,416.86V414.5h2.06v2.36Zm0,14.39V419.11h2.06v12.14Z" fill="#4c5054"/><path d="M824.39,429.41l.3,1.82a7.78,7.78,0,0,1-1.56.18,3.46,3.46,0,0,1-1.73-.35,1.94,1.94,0,0,1-.87-.93,7.36,7.36,0,0,1-.25-2.43v-7h-1.51v-1.6h1.51v-3l2-1.24v4.24h2.07v1.6h-2.07v7.1a3.58,3.58,0,0,0,.11,1.13.8.8,0,0,0,.35.4,1.39,1.39,0,0,0,.71.15A5.67,5.67,0,0,0,824.39,429.41Z" fill="#4c5054"/><path d="M834.71,427.34l2.13.27A5.22,5.22,0,0,1,835,430.5a5.61,5.61,0,0,1-3.47,1,5.55,5.55,0,0,1-4.22-1.64,6.42,6.42,0,0,1-1.56-4.6,6.73,6.73,0,0,1,1.57-4.76,5.35,5.35,0,0,1,4.1-1.69,5.16,5.16,0,0,1,4,1.66,6.57,6.57,0,0,1,1.55,4.66c0,.12,0,.31,0,.55h-9a4.73,4.73,0,0,0,1.13,3.06,3.38,3.38,0,0,0,2.54,1.07,3.1,3.1,0,0,0,1.93-.6A3.91,3.91,0,0,0,834.71,427.34ZM828,424h6.77a4.16,4.16,0,0,0-.77-2.3,3.18,3.18,0,0,0-2.55-1.19,3.26,3.26,0,0,0-2.38,1A3.73,3.73,0,0,0,828,424Z" fill="#4c5054"/><path d="M103.84,431.25V414.5h6.29a7.75,7.75,0,0,1,3.08.51,4,4,0,0,1,1.82,1.56,4.12,4.12,0,0,1,.66,2.21,3.83,3.83,0,0,1-.59,2,4.16,4.16,0,0,1-1.76,1.53,4.35,4.35,0,0,1,2.34,1.52,4.09,4.09,0,0,1,.82,2.54,4.88,4.88,0,0,1-.5,2.18,4.11,4.11,0,0,1-1.23,1.56,5,5,0,0,1-1.83.83,11.06,11.06,0,0,1-2.71.28Zm2.22-9.71h3.62a8,8,0,0,0,2.12-.2,2.28,2.28,0,0,0,1.27-.83,2.38,2.38,0,0,0,.43-1.46,2.66,2.66,0,0,0-.4-1.47,2,2,0,0,0-1.14-.87,9.38,9.38,0,0,0-2.55-.24h-3.35Zm0,7.74h4.17a10,10,0,0,0,1.51-.08,3.84,3.84,0,0,0,1.28-.46,2.48,2.48,0,0,0,.85-.93,2.94,2.94,0,0,0,.33-1.41,2.78,2.78,0,0,0-.48-1.63,2.49,2.49,0,0,0-1.33-1,8.12,8.12,0,0,0-2.45-.29h-3.88Z" fill="#4c5054"/><path d="M119.26,431.25V419.11h1.85V421a5.13,5.13,0,0,1,1.31-1.71,2.31,2.31,0,0,1,1.32-.41,4,4,0,0,1,2.12.66l-.71,1.91a3,3,0,0,0-1.51-.44,2,2,0,0,0-1.21.4,2.19,2.19,0,0,0-.77,1.13,8,8,0,0,0-.34,2.4v6.35Z" fill="#4c5054"/><path d="M126.31,425.18a6.26,6.26,0,0,1,1.88-5,5.63,5.63,0,0,1,3.82-1.35,5.47,5.47,0,0,1,4.09,1.64,6.24,6.24,0,0,1,1.59,4.53,8,8,0,0,1-.71,3.69,4.93,4.93,0,0,1-2,2.08,5.92,5.92,0,0,1-2.93.75,5.44,5.44,0,0,1-4.12-1.64A6.52,6.52,0,0,1,126.31,425.18Zm2.12,0a5.19,5.19,0,0,0,1,3.5,3.38,3.38,0,0,0,5.11,0,5.33,5.33,0,0,0,1-3.55,5,5,0,0,0-1-3.42,3.38,3.38,0,0,0-5.1,0A5.13,5.13,0,0,0,128.43,425.18Z" fill="#4c5054"/><path d="M142.34,431.25l-3.72-12.14h2.13l1.93,7,.72,2.61c0-.13.24-1,.63-2.51l1.93-7.11h2.12l1.81,7.05.61,2.32.7-2.35,2.08-7h2l-3.8,12.14h-2.13L147.41,424l-.47-2.06-2.45,9.33Z" fill="#4c5054"/><path d="M156.18,427.63l2-.32a2.85,2.85,0,0,0,1,1.87,3.29,3.29,0,0,0,2.19.66,3.25,3.25,0,0,0,2.1-.58,1.74,1.74,0,0,0,.69-1.36,1.25,1.25,0,0,0-.61-1.09,8.39,8.39,0,0,0-2.1-.7,18.79,18.79,0,0,1-3.14-1,3,3,0,0,1-1.78-2.78,3.22,3.22,0,0,1,1.39-2.65,4,4,0,0,1,1.3-.6,6.08,6.08,0,0,1,1.78-.25,7.14,7.14,0,0,1,2.51.41,3.51,3.51,0,0,1,1.6,1.12,4.38,4.38,0,0,1,.7,1.88l-2,.27a2.19,2.19,0,0,0-.79-1.46,2.92,2.92,0,0,0-1.86-.53,3.37,3.37,0,0,0-2,.47,1.35,1.35,0,0,0-.61,1.1,1.21,1.21,0,0,0,.25.72,1.88,1.88,0,0,0,.79.55c.21.07.81.25,1.82.52a25.61,25.61,0,0,1,3,1,2.89,2.89,0,0,1,1.84,2.84,3.43,3.43,0,0,1-.6,1.93,3.87,3.87,0,0,1-1.73,1.41,6.35,6.35,0,0,1-2.56.5,5.69,5.69,0,0,1-3.61-1A4.57,4.57,0,0,1,156.18,427.63Z" fill="#4c5054"/><path d="M177,427.34l2.12.27a5.16,5.16,0,0,1-1.86,2.89,5.66,5.66,0,0,1-3.48,1,5.57,5.57,0,0,1-4.22-1.64,6.42,6.42,0,0,1-1.56-4.6,6.74,6.74,0,0,1,1.58-4.76,5.32,5.32,0,0,1,4.09-1.69,5.19,5.19,0,0,1,4,1.66,6.57,6.57,0,0,1,1.54,4.66c0,.12,0,.31,0,.55h-9a4.62,4.62,0,0,0,1.13,3.06,3.37,3.37,0,0,0,2.54,1.07,3.15,3.15,0,0,0,1.93-.6A4,4,0,0,0,177,427.34ZM170.26,424H177a4.09,4.09,0,0,0-.78-2.3,3.15,3.15,0,0,0-2.55-1.19,3.27,3.27,0,0,0-2.38,1A3.78,3.78,0,0,0,170.26,424Z" fill="#4c5054"/><path d="M181.7,431.25V419.11h1.85V421a5.13,5.13,0,0,1,1.31-1.71,2.31,2.31,0,0,1,1.32-.41,4,4,0,0,1,2.12.66l-.71,1.91a3,3,0,0,0-1.51-.44,2,2,0,0,0-1.21.4,2.25,2.25,0,0,0-.77,1.13,8,8,0,0,0-.34,2.4v6.35Z" fill="#4c5054"/><rect x="456.51" y="157.08" width="30.57" height="19.21" fill="#f63"/><path d="M488.08,177.29H455.51V156.08h32.57Zm-30.57-2h28.57V158.08H457.51Z" fill="#4c5054"/><path d="M483.09,157.08h-2V147.2a11.26,11.26,0,1,1,22.52,0v5.88h-2V147.2a9.26,9.26,0,1,0-18.52,0Z" fill="#4c5054"/><circle cx="471.83" cy="166.03" r="2.95" fill="#ebf0f2"/><path d="M471.83,170a4,4,0,1,1,3.94-3.95A4,4,0,0,1,471.83,170Zm0-5.9a2,2,0,1,0,1.94,1.95A2,2,0,0,0,471.83,164.08Z" fill="#4c5054"/><rect x="470.83" y="168.98" width="2" height="3.39" fill="#4c5054"/><path d="M559.67,307.1l-.21,0h-.12a.75.75,0,0,1-.52-.18.59.59,0,0,1-.2-.48.61.61,0,0,1,.17-.44,1.13,1.13,0,0,1,.51-.28l3.09-.83.22-.05h.22a.36.36,0,0,1,.32.18,1,1,0,0,1,.11.49v11.25h1.66a2.83,2.83,0,0,1,1.18.15.61.61,0,0,1,.25.56.7.7,0,0,1-.21.56.9.9,0,0,1-.63.19H559.3a.87.87,0,0,1-.62-.19.7.7,0,0,1-.21-.56.58.58,0,0,1,.25-.56,2.81,2.81,0,0,1,1.17-.15h1.73V306.63Z" fill="#4c5054"/><path d="M574.92,318.59a3.5,3.5,0,0,1-3.1-1.84,11.66,11.66,0,0,1,0-10.1,3.53,3.53,0,0,1,6.21,0,11.64,11.64,0,0,1,0,10.09A3.53,3.53,0,0,1,574.92,318.59Zm0-12.3a2,2,0,0,0-1.86,1.42,9.64,9.64,0,0,0-.67,4,9.77,9.77,0,0,0,.67,4,1.93,1.93,0,0,0,3.73,0,9.79,9.79,0,0,0,.66-4,9.66,9.66,0,0,0-.66-4A2.06,2.06,0,0,0,574.92,306.29Z" fill="#4c5054"/><path d="M587.69,318.59a3.5,3.5,0,0,1-3.1-1.84,11.66,11.66,0,0,1,0-10.1,3.53,3.53,0,0,1,6.21,0,11.64,11.64,0,0,1,0,10.09A3.53,3.53,0,0,1,587.69,318.59Zm0-12.3a2,2,0,0,0-1.86,1.42,9.64,9.64,0,0,0-.67,4,9.77,9.77,0,0,0,.67,4,1.93,1.93,0,0,0,3.73,0,9.79,9.79,0,0,0,.66-4,9.66,9.66,0,0,0-.66-4A2.06,2.06,0,0,0,587.69,306.29Z" fill="#4c5054"/><path d="M598,307.1l-.21,0h-.12a.75.75,0,0,1-.52-.18.63.63,0,0,1-.2-.48.66.66,0,0,1,.17-.44,1.13,1.13,0,0,1,.51-.28l3.09-.83.22-.05h.23a.36.36,0,0,1,.31.18,1,1,0,0,1,.11.49v11.25h1.66a2.83,2.83,0,0,1,1.18.15.61.61,0,0,1,.25.56.7.7,0,0,1-.21.56.89.89,0,0,1-.62.19h-6.22a.89.89,0,0,1-.62-.19.7.7,0,0,1-.21-.56.61.61,0,0,1,.25-.56,2.83,2.83,0,0,1,1.18-.15h1.72V306.63Z" fill="#4c5054"/><path d="M610.75,307.1l-.21,0h-.12a.77.77,0,0,1-.52-.18.63.63,0,0,1-.2-.48.66.66,0,0,1,.17-.44,1.13,1.13,0,0,1,.51-.28l3.09-.83.22-.05h.23a.36.36,0,0,1,.31.18,1,1,0,0,1,.11.49v11.25H616a2.83,2.83,0,0,1,1.18.15.61.61,0,0,1,.25.56.7.7,0,0,1-.21.56.89.89,0,0,1-.62.19h-6.22a.89.89,0,0,1-.62-.19.7.7,0,0,1-.21-.56.61.61,0,0,1,.25-.56,2.83,2.83,0,0,1,1.18-.15h1.72V306.63Z" fill="#4c5054"/><path d="M623.52,307.1l-.2,0h-.12a.77.77,0,0,1-.53-.18.63.63,0,0,1-.2-.48.66.66,0,0,1,.17-.44,1.13,1.13,0,0,1,.51-.28l3.09-.83.22-.05h.23a.36.36,0,0,1,.31.18,1,1,0,0,1,.11.49v11.25h1.67a2.81,2.81,0,0,1,1.17.15.58.58,0,0,1,.25.56.7.7,0,0,1-.21.56.89.89,0,0,1-.62.19h-6.22a.89.89,0,0,1-.62-.19.7.7,0,0,1-.21-.56.61.61,0,0,1,.25-.56,2.83,2.83,0,0,1,1.18-.15h1.72V306.63Z" fill="#4c5054"/><path d="M638.77,318.59a3.51,3.51,0,0,1-3.1-1.84,11.66,11.66,0,0,1,0-10.1,3.53,3.53,0,0,1,6.21,0,11.64,11.64,0,0,1,0,10.09A3.53,3.53,0,0,1,638.77,318.59Zm0-12.3a2,2,0,0,0-1.86,1.42,9.66,9.66,0,0,0-.66,4,9.79,9.79,0,0,0,.66,4,1.93,1.93,0,0,0,3.73,0,9.77,9.77,0,0,0,.67-4,9.64,9.64,0,0,0-.67-4A2,2,0,0,0,638.77,306.29Z" fill="#4c5054"/><path d="M651.54,318.59a3.51,3.51,0,0,1-3.1-1.84,11.66,11.66,0,0,1,0-10.1,3.53,3.53,0,0,1,6.21,0,11.64,11.64,0,0,1,0,10.09A3.53,3.53,0,0,1,651.54,318.59Zm0-12.3a2.05,2.05,0,0,0-1.86,1.42,9.66,9.66,0,0,0-.66,4,9.79,9.79,0,0,0,.66,4,1.93,1.93,0,0,0,3.73,0,9.61,9.61,0,0,0,.67-4,9.48,9.48,0,0,0-.67-4A2,2,0,0,0,651.54,306.29Z" fill="#4c5054"/><path d="M661.83,307.1l-.2,0h-.12A.77.77,0,0,1,661,307a.65.65,0,0,1,0-.92,1,1,0,0,1,.51-.28l3.08-.83.22-.05H665a.36.36,0,0,1,.31.18.89.89,0,0,1,.11.49v11.25h1.67a2.81,2.81,0,0,1,1.17.15.58.58,0,0,1,.25.56.7.7,0,0,1-.21.56.87.87,0,0,1-.62.19h-6.21a.9.9,0,0,1-.63-.19.7.7,0,0,1-.21-.56.61.61,0,0,1,.25-.56,2.83,2.83,0,0,1,1.18-.15h1.72V306.63Z" fill="#4c5054"/><path d="M674.6,307.1l-.2,0h-.12a.77.77,0,0,1-.53-.18.65.65,0,0,1,0-.92,1,1,0,0,1,.51-.28l3.08-.83.22-.05h.23a.36.36,0,0,1,.31.18.89.89,0,0,1,.11.49v11.25h1.67a2.77,2.77,0,0,1,1.17.15.58.58,0,0,1,.25.56.7.7,0,0,1-.21.56.87.87,0,0,1-.62.19h-6.21a.9.9,0,0,1-.63-.19.7.7,0,0,1-.21-.56.61.61,0,0,1,.25-.56,2.83,2.83,0,0,1,1.18-.15h1.72V306.63Z" fill="#4c5054"/><path d="M689.85,318.59a3.51,3.51,0,0,1-3.1-1.84,11.66,11.66,0,0,1,0-10.1,3.53,3.53,0,0,1,6.21,0,11.64,11.64,0,0,1,0,10.09A3.52,3.52,0,0,1,689.85,318.59Zm0-12.3a2.06,2.06,0,0,0-1.86,1.42,9.66,9.66,0,0,0-.66,4,9.79,9.79,0,0,0,.66,4,1.93,1.93,0,0,0,3.73,0,9.61,9.61,0,0,0,.67-4,9.48,9.48,0,0,0-.67-4A2,2,0,0,0,689.85,306.29Z" fill="#4c5054"/><path d="M562.15,344.13a3.52,3.52,0,0,1-3.1-1.84,11.69,11.69,0,0,1,0-10.11,3.53,3.53,0,0,1,6.2,0,11.53,11.53,0,0,1,0,10.08A3.5,3.5,0,0,1,562.15,344.13Zm0-12.3a2,2,0,0,0-1.86,1.41,12.28,12.28,0,0,0,0,8,1.93,1.93,0,0,0,3.73,0,12.45,12.45,0,0,0,0-8A2.06,2.06,0,0,0,562.15,331.83Z" fill="#4c5054"/><path d="M574.92,344.13a3.52,3.52,0,0,1-3.1-1.84,11.69,11.69,0,0,1,0-10.11,3.54,3.54,0,0,1,6.21,0,11.62,11.62,0,0,1,0,10.08A3.52,3.52,0,0,1,574.92,344.13Zm0-12.3a2,2,0,0,0-1.86,1.41,12.28,12.28,0,0,0,0,8,1.93,1.93,0,0,0,3.73,0,12.45,12.45,0,0,0,0-8A2.06,2.06,0,0,0,574.92,331.83Z" fill="#4c5054"/><path d="M587.69,344.13a3.52,3.52,0,0,1-3.1-1.84,11.69,11.69,0,0,1,0-10.11,3.54,3.54,0,0,1,6.21,0,11.62,11.62,0,0,1,0,10.08A3.52,3.52,0,0,1,587.69,344.13Zm0-12.3a2,2,0,0,0-1.86,1.41,12.28,12.28,0,0,0,0,8,1.93,1.93,0,0,0,3.73,0,12.45,12.45,0,0,0,0-8A2.06,2.06,0,0,0,587.69,331.83Z" fill="#4c5054"/><path d="M598,332.64l-.21,0h-.12a.75.75,0,0,1-.52-.18.65.65,0,0,1-.2-.49.63.63,0,0,1,.17-.43,1,1,0,0,1,.51-.28l3.09-.83a1,1,0,0,1,.22-.05l.23,0a.35.35,0,0,1,.31.19,1,1,0,0,1,.11.49v11.24h1.66a2.83,2.83,0,0,1,1.18.15.62.62,0,0,1,.25.57.72.72,0,0,1-.21.56.94.94,0,0,1-.62.19h-6.22a.94.94,0,0,1-.62-.19.72.72,0,0,1-.21-.56.62.62,0,0,1,.25-.57,2.83,2.83,0,0,1,1.18-.15h1.72V332.17Z" fill="#4c5054"/><path d="M610.75,332.64l-.21,0h-.12a.77.77,0,0,1-.52-.18.65.65,0,0,1-.2-.49.63.63,0,0,1,.17-.43,1,1,0,0,1,.51-.28l3.09-.83a1,1,0,0,1,.22-.05l.23,0a.35.35,0,0,1,.31.19,1,1,0,0,1,.11.49v11.24H616a2.83,2.83,0,0,1,1.18.15.62.62,0,0,1,.25.57.72.72,0,0,1-.21.56.94.94,0,0,1-.62.19h-6.22a.94.94,0,0,1-.62-.19.72.72,0,0,1-.21-.56.62.62,0,0,1,.25-.57,2.83,2.83,0,0,1,1.18-.15h1.72V332.17Z" fill="#4c5054"/><path d="M626,344.13a3.53,3.53,0,0,1-3.1-1.84,11.69,11.69,0,0,1,0-10.11,3.54,3.54,0,0,1,6.21,0,11.62,11.62,0,0,1,0,10.08A3.52,3.52,0,0,1,626,344.13Zm0-12.3a2,2,0,0,0-1.86,1.41,12.45,12.45,0,0,0,0,8,1.93,1.93,0,0,0,3.73,0,12.28,12.28,0,0,0,0-8A2.06,2.06,0,0,0,626,331.83Z" fill="#4c5054"/><path d="M638.77,344.13a3.53,3.53,0,0,1-3.1-1.84,11.69,11.69,0,0,1,0-10.11,3.54,3.54,0,0,1,6.21,0,11.62,11.62,0,0,1,0,10.08A3.52,3.52,0,0,1,638.77,344.13Zm0-12.3a2,2,0,0,0-1.86,1.41,12.45,12.45,0,0,0,0,8,1.93,1.93,0,0,0,3.73,0,12.28,12.28,0,0,0,0-8A2,2,0,0,0,638.77,331.83Z" fill="#4c5054"/><path d="M649.06,332.64l-.2,0h-.12a.77.77,0,0,1-.53-.18.65.65,0,0,1-.2-.49.6.6,0,0,1,.18-.43,1,1,0,0,1,.51-.28l3.08-.83a1,1,0,0,1,.22-.05l.23,0a.35.35,0,0,1,.31.19.87.87,0,0,1,.11.49v11.24h1.67a2.81,2.81,0,0,1,1.17.15.6.6,0,0,1,.25.57.72.72,0,0,1-.21.56.92.92,0,0,1-.62.19H648.7a1,1,0,0,1-.63-.19.72.72,0,0,1-.21-.56.62.62,0,0,1,.25-.57,2.83,2.83,0,0,1,1.18-.15H651V332.17Z" fill="#4c5054"/><path d="M661.83,332.64l-.2,0h-.12a.77.77,0,0,1-.53-.18.65.65,0,0,1-.2-.49.6.6,0,0,1,.18-.43,1,1,0,0,1,.51-.28l3.08-.83a1,1,0,0,1,.22-.05l.23,0a.35.35,0,0,1,.31.19.87.87,0,0,1,.11.49v11.24h1.67a2.81,2.81,0,0,1,1.17.15.6.6,0,0,1,.25.57.72.72,0,0,1-.21.56.92.92,0,0,1-.62.19h-6.21a1,1,0,0,1-.63-.19.72.72,0,0,1-.21-.56.62.62,0,0,1,.25-.57,2.83,2.83,0,0,1,1.18-.15h1.72V332.17Z" fill="#4c5054"/><path d="M674.6,332.64l-.2,0h-.12a.77.77,0,0,1-.53-.18.65.65,0,0,1-.2-.49.6.6,0,0,1,.18-.43,1,1,0,0,1,.51-.28l3.08-.83a1,1,0,0,1,.22-.05l.23,0a.35.35,0,0,1,.31.19.87.87,0,0,1,.11.49v11.24h1.67a2.77,2.77,0,0,1,1.17.15.6.6,0,0,1,.25.57.72.72,0,0,1-.21.56.92.92,0,0,1-.62.19h-6.21a1,1,0,0,1-.63-.19.72.72,0,0,1-.21-.56.62.62,0,0,1,.25-.57,2.83,2.83,0,0,1,1.18-.15h1.72V332.17Z" fill="#4c5054"/><path d="M689.85,344.13a3.53,3.53,0,0,1-3.1-1.84,11.69,11.69,0,0,1,0-10.11,3.54,3.54,0,0,1,6.21,0,11.62,11.62,0,0,1,0,10.08A3.51,3.51,0,0,1,689.85,344.13Zm0-12.3a2.07,2.07,0,0,0-1.86,1.41,12.45,12.45,0,0,0,0,8,1.93,1.93,0,0,0,3.73,0,12.28,12.28,0,0,0,0-8A2,2,0,0,0,689.85,331.83Z" fill="#4c5054"/><path d="M247.89,318.59a3.5,3.5,0,0,1-3.1-1.84,11.66,11.66,0,0,1,0-10.1,3.54,3.54,0,0,1,6.21,0,11.62,11.62,0,0,1,0,10.08A3.51,3.51,0,0,1,247.89,318.59Zm0-12.3a2,2,0,0,0-1.86,1.42,9.66,9.66,0,0,0-.66,4,9.76,9.76,0,0,0,.66,4,1.93,1.93,0,0,0,3.73,0,9.74,9.74,0,0,0,.67-4,9.64,9.64,0,0,0-.67-4A2.06,2.06,0,0,0,247.89,306.29Z" fill="#4c5054"/><path d="M260.66,318.59a3.5,3.5,0,0,1-3.1-1.84,11.66,11.66,0,0,1,0-10.1,3.54,3.54,0,0,1,6.21,0,11.62,11.62,0,0,1,0,10.08A3.51,3.51,0,0,1,260.66,318.59Zm0-12.3a2,2,0,0,0-1.86,1.42,9.66,9.66,0,0,0-.66,4,9.76,9.76,0,0,0,.66,4,1.93,1.93,0,0,0,3.73,0,9.74,9.74,0,0,0,.67-4,9.64,9.64,0,0,0-.67-4A2.06,2.06,0,0,0,260.66,306.29Z" fill="#4c5054"/><path d="M271,307.1l-.21,0h-.12a.77.77,0,0,1-.52-.18.63.63,0,0,1-.2-.48.66.66,0,0,1,.17-.44,1.13,1.13,0,0,1,.51-.28l3.09-.83.22-.05h.23a.36.36,0,0,1,.31.18,1,1,0,0,1,.11.49v11.25h1.67a2.81,2.81,0,0,1,1.17.15.6.6,0,0,1,.25.56.7.7,0,0,1-.21.56.89.89,0,0,1-.62.19h-6.22a.89.89,0,0,1-.62-.19.7.7,0,0,1-.21-.56.62.62,0,0,1,.25-.56,2.83,2.83,0,0,1,1.18-.15h1.72V306.63Z" fill="#4c5054"/><path d="M283.72,307.1l-.21,0h-.11a.77.77,0,0,1-.53-.18.63.63,0,0,1-.2-.48.66.66,0,0,1,.17-.44,1.13,1.13,0,0,1,.51-.28l3.09-.83.22-.05h.23a.36.36,0,0,1,.31.18,1,1,0,0,1,.11.49v11.25H289a2.81,2.81,0,0,1,1.17.15.6.6,0,0,1,.25.56.7.7,0,0,1-.21.56.89.89,0,0,1-.62.19h-6.22a.89.89,0,0,1-.62-.19.7.7,0,0,1-.21-.56.62.62,0,0,1,.25-.56,2.83,2.83,0,0,1,1.18-.15h1.72V306.63Z" fill="#4c5054"/><path d="M299,318.59a3.5,3.5,0,0,1-3.1-1.84,11.66,11.66,0,0,1,0-10.1,3.54,3.54,0,0,1,6.21,0,11.62,11.62,0,0,1,0,10.08A3.51,3.51,0,0,1,299,318.59Zm0-12.3a2,2,0,0,0-1.86,1.42,9.66,9.66,0,0,0-.66,4,9.76,9.76,0,0,0,.66,4,1.93,1.93,0,0,0,3.73,0,9.74,9.74,0,0,0,.67-4,9.64,9.64,0,0,0-.67-4A2.06,2.06,0,0,0,299,306.29Z" fill="#4c5054"/><path d="M311.74,318.59a3.5,3.5,0,0,1-3.1-1.84,11.66,11.66,0,0,1,0-10.1,3.54,3.54,0,0,1,6.21,0,11.62,11.62,0,0,1,0,10.08A3.51,3.51,0,0,1,311.74,318.59Zm0-12.3a2,2,0,0,0-1.86,1.42,9.66,9.66,0,0,0-.66,4,9.76,9.76,0,0,0,.66,4,1.93,1.93,0,0,0,3.73,0,9.74,9.74,0,0,0,.67-4,9.64,9.64,0,0,0-.67-4A2.06,2.06,0,0,0,311.74,306.29Z" fill="#4c5054"/><path d="M324.51,318.59a3.5,3.5,0,0,1-3.1-1.84,11.66,11.66,0,0,1,0-10.1,3.54,3.54,0,0,1,6.21,0,11.62,11.62,0,0,1,0,10.08A3.51,3.51,0,0,1,324.51,318.59Zm0-12.3a2,2,0,0,0-1.86,1.42,9.66,9.66,0,0,0-.66,4,9.76,9.76,0,0,0,.66,4,1.93,1.93,0,0,0,3.73,0,9.74,9.74,0,0,0,.67-4,9.64,9.64,0,0,0-.67-4A2.06,2.06,0,0,0,324.51,306.29Z" fill="#4c5054"/><path d="M334.8,307.1l-.21,0h-.11A.77.77,0,0,1,334,307a.63.63,0,0,1-.2-.48.66.66,0,0,1,.17-.44,1.13,1.13,0,0,1,.51-.28l3.09-.83.22-.05H338a.36.36,0,0,1,.31.18,1,1,0,0,1,.11.49v11.25h1.67a2.81,2.81,0,0,1,1.17.15.6.6,0,0,1,.25.56.7.7,0,0,1-.21.56.89.89,0,0,1-.62.19h-6.22a.89.89,0,0,1-.62-.19.7.7,0,0,1-.21-.56.62.62,0,0,1,.25-.56,2.83,2.83,0,0,1,1.18-.15h1.72V306.63Z" fill="#4c5054"/><path d="M347.57,307.1l-.21,0h-.11a.77.77,0,0,1-.53-.18.63.63,0,0,1-.2-.48.66.66,0,0,1,.17-.44,1.13,1.13,0,0,1,.51-.28l3.09-.83.22-.05h.23a.36.36,0,0,1,.31.18,1,1,0,0,1,.11.49v11.25h1.67a2.81,2.81,0,0,1,1.17.15.6.6,0,0,1,.25.56.7.7,0,0,1-.21.56.89.89,0,0,1-.62.19H347.2a.89.89,0,0,1-.62-.19.7.7,0,0,1-.21-.56.62.62,0,0,1,.25-.56,2.83,2.83,0,0,1,1.18-.15h1.72V306.63Z" fill="#4c5054"/><path d="M362.82,318.59a3.5,3.5,0,0,1-3.1-1.84,11.66,11.66,0,0,1,0-10.1,3.54,3.54,0,0,1,6.21,0,11.62,11.62,0,0,1,0,10.08A3.51,3.51,0,0,1,362.82,318.59Zm0-12.3a2,2,0,0,0-1.86,1.42,9.66,9.66,0,0,0-.66,4,9.76,9.76,0,0,0,.66,4,1.93,1.93,0,0,0,3.73,0,9.74,9.74,0,0,0,.67-4,9.64,9.64,0,0,0-.67-4A2.06,2.06,0,0,0,362.82,306.29Z" fill="#4c5054"/><path d="M373.11,307.1l-.21,0h-.11a.77.77,0,0,1-.53-.18.63.63,0,0,1-.2-.48.66.66,0,0,1,.17-.44,1.13,1.13,0,0,1,.51-.28l3.09-.83.22-.05h.23a.36.36,0,0,1,.31.18,1,1,0,0,1,.11.49v11.25h1.67a2.81,2.81,0,0,1,1.17.15.6.6,0,0,1,.25.56.7.7,0,0,1-.21.56.89.89,0,0,1-.62.19h-6.22a.89.89,0,0,1-.62-.19.7.7,0,0,1-.21-.56.62.62,0,0,1,.25-.56,2.83,2.83,0,0,1,1.18-.15h1.72V306.63Z" fill="#4c5054"/><path d="M245.41,332.64l-.21,0h-.12a.77.77,0,0,1-.52-.18.67.67,0,0,1,0-.92,1,1,0,0,1,.51-.28l3.09-.83.22-.05.23,0a.35.35,0,0,1,.31.19,1,1,0,0,1,.11.49v11.24h1.67a2.81,2.81,0,0,1,1.17.15.6.6,0,0,1,.25.57.7.7,0,0,1-.21.56.94.94,0,0,1-.62.19H245a.94.94,0,0,1-.62-.19.7.7,0,0,1-.21-.56.62.62,0,0,1,.25-.57,2.83,2.83,0,0,1,1.18-.15h1.72V332.17Z" fill="#4c5054"/><path d="M258.18,332.64l-.21,0h-.12a.77.77,0,0,1-.52-.18.67.67,0,0,1,0-.92,1,1,0,0,1,.51-.28l3.09-.83.22-.05.23,0a.35.35,0,0,1,.31.19,1,1,0,0,1,.11.49v11.24h1.67a2.81,2.81,0,0,1,1.17.15.6.6,0,0,1,.25.57.7.7,0,0,1-.21.56.94.94,0,0,1-.62.19h-6.22a.94.94,0,0,1-.62-.19A.7.7,0,0,1,257,343a.62.62,0,0,1,.25-.57,2.83,2.83,0,0,1,1.18-.15h1.72V332.17Z" fill="#4c5054"/><path d="M271,332.64l-.21,0h-.12a.77.77,0,0,1-.52-.18.67.67,0,0,1,0-.92,1,1,0,0,1,.51-.28l3.09-.83.22-.05.23,0a.35.35,0,0,1,.31.19,1,1,0,0,1,.11.49v11.24h1.67a2.81,2.81,0,0,1,1.17.15.6.6,0,0,1,.25.57.7.7,0,0,1-.21.56.94.94,0,0,1-.62.19h-6.22a.94.94,0,0,1-.62-.19.7.7,0,0,1-.21-.56.62.62,0,0,1,.25-.57,2.83,2.83,0,0,1,1.18-.15h1.72V332.17Z" fill="#4c5054"/><path d="M286.2,344.13a3.5,3.5,0,0,1-3.1-1.84,11.66,11.66,0,0,1,0-10.1,3.53,3.53,0,0,1,6.21,0,11.64,11.64,0,0,1,0,10.09A3.53,3.53,0,0,1,286.2,344.13Zm0-12.3a2,2,0,0,0-1.86,1.41,12.48,12.48,0,0,0,0,8,1.93,1.93,0,0,0,3.73,0,12.31,12.31,0,0,0,0-8A2.06,2.06,0,0,0,286.2,331.83Z" fill="#4c5054"/><path d="M296.49,332.64l-.21,0h-.11a.77.77,0,0,1-.53-.18.67.67,0,0,1,0-.92,1,1,0,0,1,.51-.28l3.09-.83.22-.05.23,0a.35.35,0,0,1,.31.19,1,1,0,0,1,.11.49v11.24h1.67a2.81,2.81,0,0,1,1.17.15.6.6,0,0,1,.25.57.7.7,0,0,1-.21.56.94.94,0,0,1-.62.19h-6.22a.94.94,0,0,1-.62-.19.7.7,0,0,1-.21-.56.62.62,0,0,1,.25-.57,2.83,2.83,0,0,1,1.18-.15h1.72V332.17Z" fill="#4c5054"/><path d="M311.74,344.13a3.5,3.5,0,0,1-3.1-1.84,11.66,11.66,0,0,1,0-10.1,3.53,3.53,0,0,1,6.21,0,11.64,11.64,0,0,1,0,10.09A3.53,3.53,0,0,1,311.74,344.13Zm0-12.3a2,2,0,0,0-1.86,1.41,12.48,12.48,0,0,0,0,8,1.93,1.93,0,0,0,3.73,0,12.31,12.31,0,0,0,0-8A2.06,2.06,0,0,0,311.74,331.83Z" fill="#4c5054"/><path d="M324.51,344.13a3.5,3.5,0,0,1-3.1-1.84,11.66,11.66,0,0,1,0-10.1,3.53,3.53,0,0,1,6.21,0,11.64,11.64,0,0,1,0,10.09A3.53,3.53,0,0,1,324.51,344.13Zm0-12.3a2,2,0,0,0-1.86,1.41,12.48,12.48,0,0,0,0,8,1.93,1.93,0,0,0,3.73,0,12.31,12.31,0,0,0,0-8A2.06,2.06,0,0,0,324.51,331.83Z" fill="#4c5054"/><path d="M337.28,344.13a3.5,3.5,0,0,1-3.1-1.84,11.66,11.66,0,0,1,0-10.1,3.53,3.53,0,0,1,6.21,0,11.64,11.64,0,0,1,0,10.09A3.53,3.53,0,0,1,337.28,344.13Zm0-12.3a2,2,0,0,0-1.86,1.41,12.48,12.48,0,0,0,0,8,1.93,1.93,0,0,0,3.73,0,12.31,12.31,0,0,0,0-8A2.06,2.06,0,0,0,337.28,331.83Z" fill="#4c5054"/><path d="M347.57,332.64l-.21,0h-.11a.77.77,0,0,1-.53-.18.67.67,0,0,1,0-.92,1,1,0,0,1,.51-.28l3.09-.83.22-.05.23,0a.35.35,0,0,1,.31.19,1,1,0,0,1,.11.49v11.24h1.67a2.81,2.81,0,0,1,1.17.15.6.6,0,0,1,.25.57.7.7,0,0,1-.21.56.94.94,0,0,1-.62.19H347.2a.94.94,0,0,1-.62-.19.7.7,0,0,1-.21-.56.62.62,0,0,1,.25-.57,2.83,2.83,0,0,1,1.18-.15h1.72V332.17Z" fill="#4c5054"/><path d="M360.34,332.64l-.21,0H360a.77.77,0,0,1-.53-.18.67.67,0,0,1,0-.92,1,1,0,0,1,.51-.28l3.09-.83.22-.05.23,0a.35.35,0,0,1,.31.19,1,1,0,0,1,.11.49v11.24h1.67a2.81,2.81,0,0,1,1.17.15.6.6,0,0,1,.25.57.7.7,0,0,1-.21.56.94.94,0,0,1-.62.19H360a.94.94,0,0,1-.62-.19.7.7,0,0,1-.21-.56.62.62,0,0,1,.25-.57,2.83,2.83,0,0,1,1.18-.15h1.72V332.17Z" fill="#4c5054"/><path d="M373.11,332.64l-.21,0h-.11a.77.77,0,0,1-.53-.18.67.67,0,0,1,0-.92,1,1,0,0,1,.51-.28l3.09-.83.22-.05.23,0a.35.35,0,0,1,.31.19,1,1,0,0,1,.11.49v11.24h1.67a2.81,2.81,0,0,1,1.17.15.6.6,0,0,1,.25.57.7.7,0,0,1-.21.56.94.94,0,0,1-.62.19h-6.22a.94.94,0,0,1-.62-.19.7.7,0,0,1-.21-.56.62.62,0,0,1,.25-.57,2.83,2.83,0,0,1,1.18-.15h1.72V332.17Z" fill="#4c5054"/><rect x="222.03" y="290.62" width="183.8" height="2" fill="#4c5054"/><rect x="222.03" y="355.92" width="183.8" height="2" fill="#4c5054"/><rect x="535.84" y="290.62" width="186.24" height="2" fill="#4c5054"/><rect x="535.84" y="355.92" width="185.53" height="2" fill="#4c5054"/><rect x="612.9" y="393.2" width="30.87" height="19.39" fill="#f63"/><path d="M644.78,413.6H611.9V392.2h32.88Zm-30.88-2h28.88V394.2H613.9Z" fill="#4c5054"/><path d="M639.74,393.46h-2V383.23a9.36,9.36,0,1,0-18.72,0v10h-2v-10a11.36,11.36,0,1,1,22.72,0Z" fill="#4c5054"/><circle cx="628.37" cy="402.24" r="2.98" fill="#ebf0f2"/><path d="M628.37,406.22a4,4,0,1,1,4-4A4,4,0,0,1,628.37,406.22Zm0-6a2,2,0,1,0,2,2A2,2,0,0,0,628.37,400.26Z" fill="#4c5054"/><rect x="627.37" y="405.22" width="2" height="3.43" fill="#4c5054"/><rect x="298.62" y="393.2" width="30.87" height="19.39" fill="#f63"/><path d="M330.49,413.6H297.62V392.2h32.87Zm-30.87-2h28.87V394.2H299.62Z" fill="#4c5054"/><path d="M325.45,393.46h-2V383.23a9.36,9.36,0,0,0-18.72,0v10h-2v-10a11.36,11.36,0,0,1,22.72,0Z" fill="#4c5054"/><circle cx="314.09" cy="402.24" r="2.98" fill="#ebf0f2"/><path d="M314.09,406.22a4,4,0,1,1,4-4A4,4,0,0,1,314.09,406.22Zm0-6a2,2,0,1,0,2,2A2,2,0,0,0,314.09,400.26Z" fill="#4c5054"/><rect x="313.09" y="405.22" width="2" height="3.43" fill="#4c5054"/><rect x="312.53" y="357.43" width="2" height="10.64" fill="#4c5054"/><rect x="627.85" y="357.43" width="2" height="10.64" fill="#4c5054"/><rect x="69.04" y="261.4" width="152.36" height="123" fill="#fff"/><circle cx="145.22" cy="338.53" r="27.58" fill="#d0f1f7"/><path d="M145.22,367.11a28.58,28.58,0,1,1,28.58-28.58A28.61,28.61,0,0,1,145.22,367.11Zm0-55.16a26.58,26.58,0,1,0,26.58,26.58A26.61,26.61,0,0,0,145.22,312Z" fill="#4c5054"/><rect x="144.22" y="310.95" width="2" height="55.16" fill="#4c5054"/><rect x="117.64" y="337.53" width="55.16" height="2" fill="#4c5054"/><path d="M143.42,366.76c-8.17-5.05-13.45-16.17-13.45-28.34,0-12,5.15-23,13.12-28.13l1.09,1.68c-7.42,4.77-12.21,15.16-12.21,26.45,0,11.49,4.9,21.95,12.5,26.64Z" fill="#4c5054"/><path d="M146.92,366.76l-1-1.7c7.6-4.69,12.5-15.15,12.5-26.64,0-11.29-4.79-21.68-12.21-26.45l1.09-1.68c8,5.13,13.12,16.17,13.12,28.13C160.37,350.59,155.09,361.71,146.92,366.76Z" fill="#4c5054"/><path d="M145.34,330.6a30.19,30.19,0,0,1-21.89-9.29l1.44-1.39a28.43,28.43,0,0,0,40.56.35l1.42,1.41A30.26,30.26,0,0,1,145.34,330.6Z" fill="#4c5054"/><path d="M165.44,356.75a28.43,28.43,0,0,0-40.56-.35L123.46,355a30.44,30.44,0,0,1,43.42.37Z" fill="#4c5054"/><rect x="68.01" y="262.13" width="154.41" height="30.4" fill="#edd6d6" style="mix-blend-mode:multiply"/><rect x="77.44" y="271.46" width="91" height="10.67" rx="5.34" fill="#fff"/><path d="M163.11,283.13H82.78a6.34,6.34,0,1,1,0-12.67h80.33a6.34,6.34,0,0,1,0,12.67ZM82.78,272.46a4.34,4.34,0,1,0,0,8.67h80.33a4.34,4.34,0,0,0,0-8.67Z" fill="#4c5054"/><circle cx="189.06" cy="277.21" r="2.99" fill="#fff"/><path d="M189.06,281.21a4,4,0,1,1,4-4A4,4,0,0,1,189.06,281.21Zm0-6a2,2,0,1,0,2,2A2,2,0,0,0,189.06,275.22Z" fill="#4c5054"/><circle cx="199.53" cy="277.21" r="2.99" fill="#fff"/><path d="M199.53,281.21a4,4,0,1,1,4-4A4,4,0,0,1,199.53,281.21Zm0-6a2,2,0,1,0,2,2A2,2,0,0,0,199.53,275.22Z" fill="#4c5054"/><circle cx="210" cy="277.21" r="2.99" fill="#fff"/><path d="M210,281.21a4,4,0,1,1,4-4A4,4,0,0,1,210,281.21Zm0-6a2,2,0,1,0,2,2A2,2,0,0,0,210,275.22Z" fill="#4c5054"/><rect x="719.63" y="256.99" width="152.36" height="134.94" fill="#fff"/><path d="M796.28,337.3H739.92V309.92h56.36Zm-54.36-2h52.36V311.92H741.92Z" fill="#4c5054"/><rect x="810.59" y="317.78" width="40.11" height="2" fill="#4c5054"/><rect x="810.59" y="328.31" width="40.11" height="2" fill="#4c5054"/><path d="M851.7,376.67H795.34V349.28H851.7Zm-54.36-2H849.7V351.28H797.34Z" fill="#4c5054"/><rect x="740.92" y="366.81" width="40.12" height="2" fill="#4c5054"/><rect x="740.92" y="356.27" width="40.12" height="2" fill="#4c5054"/><rect x="719.63" y="257.1" width="152.36" height="40.07" fill="#d0f1f7"/><rect x="772.58" y="273.64" width="46.45" height="2" fill="#4c5054"/><rect x="758.6" y="282.09" width="74.42" height="2" fill="#4c5054"/><path d="M222.4,385.4H68v-125H222.4ZM70,383.4H220.4v-121H70Z" fill="#4c5054"/><path d="M873,392.61H718.63V257.05H873Zm-152.36-2H871V259.05H720.63Z" fill="#4c5054"/><polyline points="483.3 256.28 483.3 212.19 492.98 212.19 471 186.93 449.02 212.19 458.87 212.19 458.87 256.28" fill="#fff"/><polygon points="484.3 256.28 482.3 256.28 482.3 211.19 490.78 211.19 471 188.45 451.22 211.19 459.87 211.19 459.87 256.28 457.87 256.28 457.87 213.19 446.83 213.19 471 185.4 495.17 213.19 484.3 213.19 484.3 256.28" fill="#4c5054"/><path d="M436.59,258.7l34.56-6.65,31.2,6v10.27H435.14S436.75,258.54,436.59,258.7Z" fill="#fff"/><polygon points="468.2 382.96 405.03 370.69 405.03 274.63 468.2 262.27 468.2 382.96" fill="#414142"/><polygon points="473.71 382.96 536.97 370.69 536.97 274.63 473.71 262.27 473.71 382.96" fill="#f63"/><path d="M503.68,276.84c2.18.48,3.23.67,5.41,1.05v16.59c-6.36,6.23-9.49,9.59-15.84,16.87,6.35.29,9.48.38,15.84.67v16.39c8.72-.28,13.08-.38,21.62-.67a268,268,0,0,0-21.62,24.93v12.94c-2.18.48-3.23.67-5.41,1.05V351.61c6.36-8.05,9.49-11.88,15.74-18.88-6.35.38-9.48.48-15.83.86V316.72L482,316.24A274.92,274.92,0,0,1,503.59,292v-6.91C503.68,281.82,503.68,280.2,503.68,276.84Z" fill="#fff"/></g></svg>