<svg xmlns="http://www.w3.org/2000/svg" width="940" height="618.7" viewBox="0 0 940 618.7"><title>OAST page graphics</title><g style="isolation:isolate"><path d="M473.75,100.48V548.31c-202.16,0-366-100.27-366-223.91S271.59,100.52,473.75,100.48Z" fill="#fff"/><path d="M251.65,75.67V59.92h7a9.31,9.31,0,0,1,3.2.43,3.44,3.44,0,0,1,1.75,1.5,4.41,4.41,0,0,1,.66,2.37,4,4,0,0,1-1.09,2.83,5.53,5.53,0,0,1-3.35,1.46,5.31,5.31,0,0,1,1.26.78,10.65,10.65,0,0,1,1.73,2.1l2.74,4.28h-2.62l-2.09-3.27c-.61-1-1.11-1.67-1.5-2.17a4.55,4.55,0,0,0-1.06-1.06,3.18,3.18,0,0,0-.95-.42,6.39,6.39,0,0,0-1.16-.07h-2.42v7Zm2.08-8.8h4.48a6.68,6.68,0,0,0,2.24-.29,2.39,2.39,0,0,0,1.22-1,2.53,2.53,0,0,0,.42-1.41,2.36,2.36,0,0,0-.81-1.84,3.78,3.78,0,0,0-2.56-.72h-5Z" fill="#4c5054"/><path d="M275.07,72l2,.25A4.86,4.86,0,0,1,275.31,75a5.92,5.92,0,0,1-7.23-.57,6,6,0,0,1-1.47-4.33,6.29,6.29,0,0,1,1.49-4.46A5,5,0,0,1,271.94,64a4.9,4.9,0,0,1,3.74,1.55A6.18,6.18,0,0,1,277.13,70c0,.11,0,.28,0,.51h-8.51a4.38,4.38,0,0,0,1.07,2.88,3.13,3.13,0,0,0,2.38,1,3,3,0,0,0,1.82-.56A3.77,3.77,0,0,0,275.07,72Zm-6.35-3.13h6.37a3.91,3.91,0,0,0-.73-2.16A3,3,0,0,0,272,65.6a3.07,3.07,0,0,0-2.24.89A3.52,3.52,0,0,0,268.72,68.87Z" fill="#4c5054"/><path d="M286.94,74.26a7.25,7.25,0,0,1-2.07,1.29,6,6,0,0,1-2.13.38,4.14,4.14,0,0,1-2.89-.92,3,3,0,0,1-1-2.35,3.21,3.21,0,0,1,.38-1.53,3.15,3.15,0,0,1,1-1.11,4.52,4.52,0,0,1,1.39-.63,13.22,13.22,0,0,1,1.72-.29,17.82,17.82,0,0,0,3.45-.67c0-.26,0-.43,0-.5a2.16,2.16,0,0,0-.55-1.67,3.26,3.26,0,0,0-2.2-.65,3.52,3.52,0,0,0-2,.47,3,3,0,0,0-1,1.7l-1.89-.26a4.72,4.72,0,0,1,.85-2,3.67,3.67,0,0,1,1.71-1.15,7.58,7.58,0,0,1,2.59-.4,6.84,6.84,0,0,1,2.37.34,3.14,3.14,0,0,1,1.34.86,3.1,3.1,0,0,1,.61,1.32,11.63,11.63,0,0,1,.09,1.78v2.58a25.3,25.3,0,0,0,.13,3.41,4.22,4.22,0,0,0,.48,1.37h-2A4.16,4.16,0,0,1,286.94,74.26ZM286.78,70a14.73,14.73,0,0,1-3.16.73,7.29,7.29,0,0,0-1.69.38,1.76,1.76,0,0,0-.76.63,1.7,1.7,0,0,0,.32,2.21,2.53,2.53,0,0,0,1.71.51,4.07,4.07,0,0,0,2-.48,3.12,3.12,0,0,0,1.28-1.34,4.8,4.8,0,0,0,.31-1.93Z" fill="#4c5054"/><path d="M291.69,75.67V59.92h1.93V75.67Z" fill="#4c5054"/><path d="M305.9,75.67l-4.34-11.41h2l2.45,6.84c.26.73.51,1.5.73,2.29.17-.6.41-1.32.72-2.17l2.53-7h2L307.7,75.67Z" fill="#4c5054"/><path d="M321.21,75.67V74a4.18,4.18,0,0,1-3.62,1.93,4.57,4.57,0,0,1-1.89-.39,3,3,0,0,1-1.3-1,3.79,3.79,0,0,1-.6-1.43,10.92,10.92,0,0,1-.11-1.81V64.26h1.93v6.33a11.08,11.08,0,0,0,.12,2,2,2,0,0,0,.77,1.2,2.38,2.38,0,0,0,1.46.43,3.12,3.12,0,0,0,1.63-.44,2.48,2.48,0,0,0,1.08-1.21,6,6,0,0,0,.32-2.23V64.26h1.94V75.67Z" fill="#4c5054"/><path d="M325.92,75.67V59.92h1.93V75.67Z" fill="#4c5054"/><path d="M330.85,75.67V64.26h1.74v1.63A4.09,4.09,0,0,1,336.22,64a4.74,4.74,0,0,1,1.9.37,2.86,2.86,0,0,1,1.29,1,3.78,3.78,0,0,1,.61,1.43,11.46,11.46,0,0,1,.1,1.88v7h-1.93V68.73A5.25,5.25,0,0,0,338,67a1.84,1.84,0,0,0-.8-.93,2.56,2.56,0,0,0-1.35-.35,3.11,3.11,0,0,0-2.13.79,3.84,3.84,0,0,0-.89,3v6.23Z" fill="#4c5054"/><path d="M350.9,72l2,.25A4.86,4.86,0,0,1,351.14,75a5.92,5.92,0,0,1-7.23-.57,6,6,0,0,1-1.47-4.33,6.29,6.29,0,0,1,1.49-4.46A5,5,0,0,1,347.77,64a4.9,4.9,0,0,1,3.74,1.55A6.18,6.18,0,0,1,353,70c0,.11,0,.28,0,.51h-8.51a4.43,4.43,0,0,0,1.06,2.88,3.17,3.17,0,0,0,2.39,1,3,3,0,0,0,1.81-.56A3.71,3.71,0,0,0,350.9,72Zm-6.35-3.13h6.37a3.91,3.91,0,0,0-.73-2.16,3,3,0,0,0-2.4-1.11,3.05,3.05,0,0,0-2.24.89A3.52,3.52,0,0,0,344.55,68.87Z" fill="#4c5054"/><path d="M355.3,75.67V64.26H357V66a4.89,4.89,0,0,1,1.23-1.6,2.13,2.13,0,0,1,1.24-.38,3.73,3.73,0,0,1,2,.62l-.67,1.79a2.73,2.73,0,0,0-1.41-.42,1.84,1.84,0,0,0-1.14.38,2.06,2.06,0,0,0-.72,1.06,7.39,7.39,0,0,0-.33,2.26v6Z" fill="#4c5054"/><path d="M370.09,74.26A7.09,7.09,0,0,1,368,75.55a6.06,6.06,0,0,1-2.14.38A4.18,4.18,0,0,1,363,75a3,3,0,0,1-1-2.35A3.23,3.23,0,0,1,363.37,70a4.69,4.69,0,0,1,1.4-.63,13,13,0,0,1,1.71-.29,17.82,17.82,0,0,0,3.45-.67c0-.26,0-.43,0-.5a2.16,2.16,0,0,0-.54-1.67,3.29,3.29,0,0,0-2.21-.65,3.46,3.46,0,0,0-2,.47,2.92,2.92,0,0,0-1,1.7l-1.89-.26a4.59,4.59,0,0,1,.85-2,3.69,3.69,0,0,1,1.7-1.15,7.62,7.62,0,0,1,2.59-.4,6.86,6.86,0,0,1,2.38.34,3.27,3.27,0,0,1,1.34.86,3,3,0,0,1,.6,1.32,11.26,11.26,0,0,1,.1,1.78v2.58A28,28,0,0,0,372,74.3a4.24,4.24,0,0,0,.49,1.37h-2A4.16,4.16,0,0,1,370.09,74.26ZM369.93,70a14.44,14.44,0,0,1-3.16.73,7.31,7.31,0,0,0-1.68.38,1.79,1.79,0,0,0-.77.63,1.73,1.73,0,0,0-.26.92,1.63,1.63,0,0,0,.58,1.29,2.53,2.53,0,0,0,1.71.51,4,4,0,0,0,2-.48,3.06,3.06,0,0,0,1.28-1.34,4.63,4.63,0,0,0,.31-1.93Z" fill="#4c5054"/><path d="M376.67,75.67h-1.8V59.92h1.94v5.62A3.82,3.82,0,0,1,379.93,64a4.88,4.88,0,0,1,2,.42,4,4,0,0,1,1.54,1.19,5.62,5.62,0,0,1,.95,1.86,7.57,7.57,0,0,1,.35,2.32,6.55,6.55,0,0,1-1.45,4.53,4.53,4.53,0,0,1-3.48,1.6,3.61,3.61,0,0,1-3.17-1.69Zm0-5.79a6,6,0,0,0,.55,3,2.77,2.77,0,0,0,4.67.39,5.05,5.05,0,0,0,.92-3.28,5,5,0,0,0-.89-3.3,2.68,2.68,0,0,0-2.14-1.06,2.77,2.77,0,0,0-2.19,1.1A4.79,4.79,0,0,0,376.65,69.88Z" fill="#4c5054"/><path d="M387.13,62.15V59.92h1.93v2.23Zm0,13.52V64.26h1.93V75.67Z" fill="#4c5054"/><path d="M392,75.67V59.92h1.94V75.67Z" fill="#4c5054"/><path d="M396.91,62.15V59.92h1.93v2.23Zm0,13.52V64.26h1.93V75.67Z" fill="#4c5054"/><path d="M406,73.94l.28,1.71a7.45,7.45,0,0,1-1.46.17,3.33,3.33,0,0,1-1.63-.33,1.83,1.83,0,0,1-.82-.88,7.18,7.18,0,0,1-.23-2.28V65.77h-1.42V64.26h1.42V61.44l1.92-1.16v4H406v1.51h-1.94v6.67a3.32,3.32,0,0,0,.1,1.06.78.78,0,0,0,.34.38,1.3,1.3,0,0,0,.66.14A6.4,6.4,0,0,0,406,73.94Z" fill="#4c5054"/><path d="M407.91,62.15V59.92h1.93v2.23Zm0,13.52V64.26h1.93V75.67Z" fill="#4c5054"/><path d="M420.59,72l2,.25A4.9,4.9,0,0,1,420.84,75a5.93,5.93,0,0,1-7.24-.57,6.07,6.07,0,0,1-1.46-4.33,6.29,6.29,0,0,1,1.48-4.46A5,5,0,0,1,417.47,64a4.88,4.88,0,0,1,3.73,1.55A6.18,6.18,0,0,1,422.65,70c0,.11,0,.28,0,.51h-8.5a4.38,4.38,0,0,0,1.06,2.88,3.15,3.15,0,0,0,2.38,1,3,3,0,0,0,1.82-.56A3.7,3.7,0,0,0,420.59,72Zm-6.35-3.13h6.37a3.83,3.83,0,0,0-.73-2.16,3,3,0,0,0-2.39-1.11,3,3,0,0,0-2.24.89A3.53,3.53,0,0,0,414.24,68.87Z" fill="#4c5054"/><path d="M424.24,72.27l1.92-.3a2.65,2.65,0,0,0,.89,1.76,3.12,3.12,0,0,0,2.06.61,3,3,0,0,0,2-.54,1.62,1.62,0,0,0,.64-1.28,1.18,1.18,0,0,0-.57-1,8.19,8.19,0,0,0-2-.65,18.39,18.39,0,0,1-2.95-.93A2.79,2.79,0,0,1,425,68.82a2.89,2.89,0,0,1-.42-1.53,2.84,2.84,0,0,1,.35-1.41,3.17,3.17,0,0,1,.95-1.08,3.93,3.93,0,0,1,1.23-.56,5.62,5.62,0,0,1,1.67-.23,6.51,6.51,0,0,1,2.35.38,3.21,3.21,0,0,1,1.5,1,4,4,0,0,1,.67,1.77l-1.89.25a2.1,2.1,0,0,0-.75-1.37,2.71,2.71,0,0,0-1.74-.49A3.09,3.09,0,0,0,427,66a1.27,1.27,0,0,0-.57,1,1,1,0,0,0,.23.67,1.78,1.78,0,0,0,.74.52c.2.07.77.24,1.71.49a24.82,24.82,0,0,1,2.86.9,2.72,2.72,0,0,1,1.74,2.67,3.3,3.3,0,0,1-.56,1.82,3.65,3.65,0,0,1-1.63,1.32,6,6,0,0,1-2.41.47,5.41,5.41,0,0,1-3.39-.92A4.37,4.37,0,0,1,424.24,72.27Z" fill="#4c5054"/><path d="M473.89,549.32c-98,0-190.12-23.35-259.44-65.74C145,441.1,106.73,384.57,106.73,324.4S145,207.69,214.45,165.21,375.9,99.48,473.89,99.48v2c-201.35,0-365.16,100-365.16,222.92S272.54,547.32,473.89,547.32Z" fill="#4c5054"/><path d="M473.89,549.32v-2l4.8,0v2Zm16.83-.24-.05-2c4-.11,8-.26,12-.45l.09,2C498.75,548.82,494.71,549,490.72,549.08Zm24-1.14-.13-2c3.94-.26,7.95-.57,11.94-.93l.18,2C522.72,547.36,518.68,547.67,514.73,547.94Zm23.95-2.11-.21-2c4-.44,8-.91,11.89-1.42l.26,2C546.68,544.91,542.67,545.39,538.68,545.83Zm23.84-3.11-.3-2c4-.61,7.94-1.25,11.83-1.93l.34,2C570.49,541.47,566.49,542.12,562.52,542.72Zm23.69-4.12-.38-2c3.89-.77,7.84-1.59,11.72-2.44l.43,1.95C594.08,537,590.12,537.83,586.21,538.6Zm23.49-5.16-.48-1.94c3.89-1,7.8-2,11.61-3l.51,1.93C617.52,531.48,613.6,532.49,609.7,533.44Zm23.22-6.25-.57-1.92c3.84-1.13,7.69-2.31,11.45-3.52l.61,1.9C640.64,524.87,636.77,526.06,632.92,527.19Zm22.89-7.36-.66-1.89c3.78-1.32,7.56-2.7,11.25-4.11l.71,1.87C663.41,517.11,659.6,518.5,655.81,519.83Zm22.49-8.55-.76-1.85c3.7-1.52,7.4-3.1,11-4.7l.81,1.82C685.74,508.16,682,509.76,678.3,511.28Zm22-9.77-.86-1.81c3.6-1.73,7.2-3.52,10.7-5.34l.93,1.77C707.53,498,703.9,499.77,700.28,501.51Zm21.35-11.09-1-1.74c3.49-2,7-4,10.34-6l1,1.71C728.65,486.42,725.15,488.46,721.63,490.42ZM742.22,478l-1.1-1.67c3.37-2.21,6.69-4.48,9.88-6.74l1.16,1.63C749,473.45,745.61,475.73,742.22,478ZM761.83,464l-1.22-1.58c3.17-2.45,6.3-5,9.3-7.51l1.29,1.53C768.17,459,765,461.53,761.83,464Zm18.4-15.54L778.87,447c2.94-2.73,5.83-5.53,8.57-8.33l1.43,1.41C786.1,442.9,783.2,445.72,780.23,448.46Zm16.85-17.2-1.5-1.33c2.66-3,5.23-6.09,7.64-9.16L804.8,422C802.36,425.1,799.76,428.22,797.08,431.26ZM812,412.31l-1.64-1.13c2.28-3.29,4.46-6.66,6.48-10l1.71,1C816.47,405.58,814.27,409,812,412.31Zm12.41-20.66-1.79-.9c1.82-3.56,3.51-7.2,5-10.8l1.84.77C827.92,384.37,826.21,388.05,824.37,391.65Zm9.32-22.22-1.9-.63c1.26-3.78,2.36-7.62,3.29-11.43l1.94.47C836.08,361.7,835,365.6,833.69,369.43Zm5.68-23.4-2-.31c.61-3.91,1.05-7.89,1.32-11.83l2,.14C840.44,338,840,342.06,839.37,346ZM839,322c-.07-3.95-.31-7.95-.72-11.88l2-.21c.41,4,.66,8,.73,12Zm-2.45-23.61c-.73-3.87-1.65-7.77-2.71-11.59l1.93-.53c1.08,3.87,2,7.82,2.75,11.74Zm-6.36-22.91c-1.35-3.68-2.88-7.38-4.53-11l1.82-.83c1.68,3.67,3.22,7.43,4.59,11.15Zm-9.87-21.66c-1.87-3.43-3.92-6.88-6.07-10.26l1.68-1.07c2.18,3.42,4.25,6.91,6.14,10.37Zm-12.81-20.1c-2.3-3.16-4.77-6.33-7.32-9.42l1.54-1.27c2.58,3.12,5.07,6.32,7.4,9.51Zm-15.17-18.41c-2.65-2.89-5.45-5.77-8.32-8.58l1.4-1.42c2.89,2.83,5.71,5.73,8.39,8.64Zm-17-16.73c-2.92-2.61-6-5.21-9.1-7.75l1.26-1.55c3.14,2.55,6.23,5.18,9.17,7.8Zm-18.53-15.1c-3.15-2.36-6.42-4.7-9.72-7l1.14-1.65c3.31,2.28,6.6,4.64,9.78,7Zm-19.7-13.57c-3.31-2.1-6.74-4.19-10.21-6.23l1-1.72c3.49,2,7,4.15,10.28,6.27ZM716.46,157.8c-3.46-1.88-7-3.74-10.61-5.55l.9-1.78c3.6,1.81,7.19,3.68,10.67,5.57ZM695.08,147c-3.56-1.66-7.24-3.31-10.92-4.9l.79-1.83c3.7,1.6,7.4,3.25,11,4.92Zm-22-9.48c-3.68-1.47-7.44-2.91-11.18-4.28l.69-1.88c3.76,1.38,7.53,2.83,11.23,4.3Zm-22.47-8.26c-3.76-1.27-7.59-2.52-11.39-3.7l.59-1.91c3.82,1.19,7.67,2.44,11.44,3.71Zm-22.87-7.11c-3.81-1.09-7.7-2.14-11.56-3.14l.5-1.94c3.88,1,7.78,2.07,11.6,3.15Zm-23.19-6c-3.88-.9-7.81-1.78-11.7-2.59l.42-2c3.89.82,7.84,1.7,11.73,2.61Zm-23.44-4.93c-3.92-.73-7.89-1.43-11.8-2.08l.32-2c3.93.65,7.92,1.35,11.84,2.08Zm-23.64-3.9c-4-.56-8-1.09-11.88-1.57l.24-2c3.95.48,8,1,11.92,1.58Zm-23.79-2.89c-4-.4-8-.77-11.93-1.08l.16-2c4,.32,8,.69,12,1.09Zm-23.88-1.92c-4-.23-8-.43-12-.59l.08-2c4,.16,8,.36,12,.6Zm-23.94-.94c-4-.08-8-.12-12-.12v-2c4,0,8.05,0,12,.12Z" fill="#4c5054"/><ellipse cx="508.3" cy="353.76" rx="200.55" ry="158.62" fill="#edd6d6"/><ellipse cx="387.77" cy="293.57" rx="112.48" ry="106.93" fill="#c4e6df" style="mix-blend-mode:multiply"/><path d="M483.68,273.8c0,69.3-4.77,195.7-106.6,197.29-104.2,1.63-157.52-101.83-144.79-193.32C245.81,180.6,303.68,149,377.08,148.1,439.93,147.31,483.68,204.49,483.68,273.8Z" fill="#d0f1f7" style="mix-blend-mode:multiply"/><path d="M515.27,75.67V59.92h10.62v1.86h-8.54v4.88h7.39v1.86h-7.39v7.15Z" fill="#4c5054"/><path d="M535.8,74.26a7.25,7.25,0,0,1-2.07,1.29,6,6,0,0,1-2.13.38,4.14,4.14,0,0,1-2.89-.92,3,3,0,0,1-1-2.35,3.21,3.21,0,0,1,.38-1.53,3.15,3.15,0,0,1,1-1.11,4.52,4.52,0,0,1,1.39-.63,13.22,13.22,0,0,1,1.72-.29,17.82,17.82,0,0,0,3.45-.67c0-.26,0-.43,0-.5a2.16,2.16,0,0,0-.55-1.67,3.26,3.26,0,0,0-2.2-.65,3.52,3.52,0,0,0-2,.47,3,3,0,0,0-1,1.7L528,67.52a4.72,4.72,0,0,1,.85-2,3.67,3.67,0,0,1,1.71-1.15,7.58,7.58,0,0,1,2.59-.4,6.84,6.84,0,0,1,2.37.34,3.14,3.14,0,0,1,1.34.86,3.1,3.1,0,0,1,.61,1.32,11.63,11.63,0,0,1,.09,1.78v2.58a28,28,0,0,0,.12,3.41,4.49,4.49,0,0,0,.49,1.37h-2A4,4,0,0,1,535.8,74.26ZM535.64,70a14.73,14.73,0,0,1-3.16.73,7.29,7.29,0,0,0-1.69.38,1.76,1.76,0,0,0-.76.63,1.7,1.7,0,0,0,.32,2.21,2.53,2.53,0,0,0,1.71.51,4.07,4.07,0,0,0,2-.48,3.12,3.12,0,0,0,1.28-1.34,4.8,4.8,0,0,0,.31-1.93Z" fill="#4c5054"/><path d="M540.55,75.67V59.92h1.93V75.67Z" fill="#4c5054"/><path d="M544.7,72.27l1.92-.3a2.65,2.65,0,0,0,.89,1.76,3.12,3.12,0,0,0,2.06.61,3,3,0,0,0,2-.54,1.62,1.62,0,0,0,.64-1.28,1.18,1.18,0,0,0-.57-1,8.15,8.15,0,0,0-2-.65,18.18,18.18,0,0,1-2.94-.93,2.79,2.79,0,0,1-1.25-1.09,2.89,2.89,0,0,1-.42-1.53,2.94,2.94,0,0,1,.34-1.41,3.2,3.2,0,0,1,1-1.08,4,4,0,0,1,1.22-.56,5.69,5.69,0,0,1,1.68-.23,6.51,6.51,0,0,1,2.35.38,3.21,3.21,0,0,1,1.5,1,4.1,4.1,0,0,1,.67,1.77l-1.89.25a2.1,2.1,0,0,0-.75-1.37,2.71,2.71,0,0,0-1.74-.49,3.14,3.14,0,0,0-1.91.44,1.27,1.27,0,0,0-.57,1,1,1,0,0,0,.24.67,1.78,1.78,0,0,0,.74.52c.2.07.76.24,1.71.49a24.82,24.82,0,0,1,2.86.9,2.72,2.72,0,0,1,1.74,2.67,3.23,3.23,0,0,1-.57,1.82A3.57,3.57,0,0,1,552,75.46a6,6,0,0,1-2.41.47,5.41,5.41,0,0,1-3.39-.92A4.32,4.32,0,0,1,544.7,72.27Z" fill="#4c5054"/><path d="M564.29,72l2,.25A4.85,4.85,0,0,1,564.53,75a5.92,5.92,0,0,1-7.23-.57,6,6,0,0,1-1.47-4.33,6.33,6.33,0,0,1,1.48-4.46A5,5,0,0,1,561.16,64a4.9,4.9,0,0,1,3.74,1.55A6.18,6.18,0,0,1,566.35,70c0,.11,0,.28,0,.51h-8.51a4.43,4.43,0,0,0,1.06,2.88,3.17,3.17,0,0,0,2.39,1,3,3,0,0,0,1.81-.56A3.78,3.78,0,0,0,564.29,72Zm-6.35-3.13h6.37a3.91,3.91,0,0,0-.73-2.16,3,3,0,0,0-2.4-1.11,3.05,3.05,0,0,0-2.24.89A3.52,3.52,0,0,0,557.94,68.87Z" fill="#4c5054"/><path d="M574.82,80V64.26h1.77v1.49a4.32,4.32,0,0,1,1.4-1.31,3.89,3.89,0,0,1,1.9-.43,4.5,4.5,0,0,1,2.58.75,4.6,4.6,0,0,1,1.69,2.12A8.21,8.21,0,0,1,584.1,73a4.81,4.81,0,0,1-4.35,2.89,3.65,3.65,0,0,1-1.73-.41,3.88,3.88,0,0,1-1.26-1V80Zm1.76-10a5,5,0,0,0,.89,3.26,2.73,2.73,0,0,0,2.16,1,2.77,2.77,0,0,0,2.2-1.09,5.13,5.13,0,0,0,.92-3.38,5,5,0,0,0-.9-3.26,2.67,2.67,0,0,0-2.14-1.09,2.78,2.78,0,0,0-2.18,1.16A5.11,5.11,0,0,0,576.58,70Z" fill="#4c5054"/><path d="M586.34,70a5.92,5.92,0,0,1,1.76-4.7A5.33,5.33,0,0,1,591.69,64a5.12,5.12,0,0,1,3.85,1.54A5.89,5.89,0,0,1,597,69.81a7.55,7.55,0,0,1-.66,3.46,4.62,4.62,0,0,1-1.93,2,5.54,5.54,0,0,1-2.75.7,5.09,5.09,0,0,1-3.87-1.54A6.1,6.1,0,0,1,586.34,70Zm2,0a4.9,4.9,0,0,0,.95,3.28,3.06,3.06,0,0,0,2.41,1.09,3,3,0,0,0,2.39-1.1,5,5,0,0,0,1-3.34,4.69,4.69,0,0,0-1-3.2,3,3,0,0,0-2.39-1.09,3.08,3.08,0,0,0-2.41,1.08A4.88,4.88,0,0,0,588.33,70Z" fill="#4c5054"/><path d="M598.52,72.27l1.91-.3a2.7,2.7,0,0,0,.9,1.76,3.12,3.12,0,0,0,2.06.61,3,3,0,0,0,2-.54,1.63,1.63,0,0,0,.65-1.28,1.18,1.18,0,0,0-.57-1,8.33,8.33,0,0,0-2-.65,18.39,18.39,0,0,1-3-.93,2.85,2.85,0,0,1-1.67-2.62,3,3,0,0,1,.35-1.41,3.17,3.17,0,0,1,.95-1.08,3.93,3.93,0,0,1,1.23-.56A5.67,5.67,0,0,1,603,64a6.57,6.57,0,0,1,2.36.38,3.21,3.21,0,0,1,1.5,1,4.23,4.23,0,0,1,.67,1.77l-1.89.25a2.1,2.1,0,0,0-.75-1.37,2.72,2.72,0,0,0-1.75-.49,3.11,3.11,0,0,0-1.9.44,1.27,1.27,0,0,0-.57,1,1,1,0,0,0,.24.67,1.71,1.71,0,0,0,.74.52c.19.07.76.24,1.71.49a24.82,24.82,0,0,1,2.86.9A2.76,2.76,0,0,1,608,72.32a3.23,3.23,0,0,1-.57,1.82,3.6,3.6,0,0,1-1.63,1.32,5.91,5.91,0,0,1-2.4.47A5.41,5.41,0,0,1,600,75,4.32,4.32,0,0,1,598.52,72.27Z" fill="#4c5054"/><path d="M610.31,62.15V59.92h1.93v2.23Zm0,13.52V64.26h1.93V75.67Z" fill="#4c5054"/><path d="M619.4,73.94l.28,1.71a7.45,7.45,0,0,1-1.46.17,3.33,3.33,0,0,1-1.63-.33,1.83,1.83,0,0,1-.82-.88,7.18,7.18,0,0,1-.23-2.28V65.77h-1.42V64.26h1.42V61.44l1.92-1.16v4h1.94v1.51h-1.94v6.67a3.32,3.32,0,0,0,.1,1.06.81.81,0,0,0,.33.38,1.36,1.36,0,0,0,.67.14A6.4,6.4,0,0,0,619.4,73.94Z" fill="#4c5054"/><path d="M621.31,62.15V59.92h1.93v2.23Zm0,13.52V64.26h1.93V75.67Z" fill="#4c5054"/><path d="M629.35,75.67,625,64.26h2l2.45,6.84c.27.73.51,1.5.73,2.29.17-.6.41-1.32.72-2.17l2.54-7h2l-4.31,11.41Z" fill="#4c5054"/><path d="M645,72l2,.25A4.9,4.9,0,0,1,645.24,75a5.93,5.93,0,0,1-7.24-.57,6.07,6.07,0,0,1-1.46-4.33A6.29,6.29,0,0,1,638,65.6,5,5,0,0,1,641.87,64a4.88,4.88,0,0,1,3.73,1.55A6.18,6.18,0,0,1,647.05,70c0,.11,0,.28,0,.51h-8.5a4.38,4.38,0,0,0,1.06,2.88,3.15,3.15,0,0,0,2.38,1,3,3,0,0,0,1.82-.56A3.7,3.7,0,0,0,645,72Zm-6.35-3.13H645a3.83,3.83,0,0,0-.73-2.16,3,3,0,0,0-2.39-1.11,3,3,0,0,0-2.24.89A3.53,3.53,0,0,0,638.64,68.87Z" fill="#4c5054"/><path d="M648.64,72.27l1.92-.3a2.65,2.65,0,0,0,.89,1.76,3.12,3.12,0,0,0,2.06.61,3,3,0,0,0,2-.54,1.62,1.62,0,0,0,.64-1.28,1.18,1.18,0,0,0-.57-1,8.19,8.19,0,0,0-2-.65,18,18,0,0,1-3-.93,2.79,2.79,0,0,1-1.25-1.09,2.89,2.89,0,0,1-.42-1.53,2.84,2.84,0,0,1,.35-1.41,3.17,3.17,0,0,1,.95-1.08,3.93,3.93,0,0,1,1.23-.56,5.62,5.62,0,0,1,1.67-.23,6.51,6.51,0,0,1,2.35.38,3.21,3.21,0,0,1,1.5,1,4,4,0,0,1,.67,1.77l-1.89.25a2.1,2.1,0,0,0-.75-1.37,2.71,2.71,0,0,0-1.74-.49,3.09,3.09,0,0,0-1.9.44,1.27,1.27,0,0,0-.57,1,1,1,0,0,0,.23.67,1.78,1.78,0,0,0,.74.52c.2.07.77.24,1.71.49a24.82,24.82,0,0,1,2.86.9,2.72,2.72,0,0,1,1.74,2.67,3.23,3.23,0,0,1-.57,1.82,3.57,3.57,0,0,1-1.62,1.32,6,6,0,0,1-2.41.47,5.41,5.41,0,0,1-3.39-.92A4.32,4.32,0,0,1,648.64,72.27Z" fill="#4c5054"/><path d="M565,359.38l2-.17a4.32,4.32,0,0,0,.65,1.94,3.56,3.56,0,0,0,1.59,1.22,6.47,6.47,0,0,0,4.52.12,3,3,0,0,0,1.36-1,2.23,2.23,0,0,0,.44-1.35,2,2,0,0,0-.43-1.29,3.09,3.09,0,0,0-1.41-.93c-.43-.16-1.36-.42-2.81-.77a14,14,0,0,1-3-1,4.21,4.21,0,0,1-1.68-1.47,3.56,3.56,0,0,1-.55-2,4,4,0,0,1,.67-2.23,4.24,4.24,0,0,1,2-1.57,7.48,7.48,0,0,1,2.89-.54,7.81,7.81,0,0,1,3.09.57,4.44,4.44,0,0,1,2.06,1.66,4.78,4.78,0,0,1,.77,2.48l-2,.15A3.24,3.24,0,0,0,574,351a4.22,4.22,0,0,0-2.74-.76,4.44,4.44,0,0,0-2.76.69,2.06,2.06,0,0,0-.86,1.67,1.78,1.78,0,0,0,.61,1.4,8.17,8.17,0,0,0,3.14,1.12,21.16,21.16,0,0,1,3.49,1,4.87,4.87,0,0,1,2,1.6,4,4,0,0,1,.65,2.24,4.28,4.28,0,0,1-.72,2.37,4.74,4.74,0,0,1-2.07,1.73,7.2,7.2,0,0,1-3,.62,9.15,9.15,0,0,1-3.58-.62,5,5,0,0,1-2.27-1.88A5.21,5.21,0,0,1,565,359.38Z" fill="#4c5054"/><path d="M578.69,364.44l6-15.75H587l6.45,15.75h-2.38l-1.83-4.77h-6.59l-1.73,4.77Zm4.54-6.47h5.34l-1.64-4.36c-.5-1.32-.88-2.41-1.12-3.26a19.21,19.21,0,0,1-.85,3Z" fill="#4c5054"/><path d="M594.38,359.38l2-.17a4.32,4.32,0,0,0,.65,1.94,3.58,3.58,0,0,0,1.58,1.22,6.07,6.07,0,0,0,2.42.47,5.94,5.94,0,0,0,2.11-.35,3,3,0,0,0,1.36-1,2.29,2.29,0,0,0,.44-1.35,2,2,0,0,0-.43-1.29,3.13,3.13,0,0,0-1.42-.93,29,29,0,0,0-2.8-.77,13.76,13.76,0,0,1-3-1,4.21,4.21,0,0,1-1.68-1.47,3.56,3.56,0,0,1-.55-2,4,4,0,0,1,.67-2.23,4.19,4.19,0,0,1,2-1.57,7.44,7.44,0,0,1,2.89-.54,7.81,7.81,0,0,1,3.09.57,4.41,4.41,0,0,1,2,1.66,4.78,4.78,0,0,1,.78,2.48l-2,.15a3.24,3.24,0,0,0-1.09-2.26,4.25,4.25,0,0,0-2.75-.76,4.41,4.41,0,0,0-2.75.69,2.07,2.07,0,0,0-.87,1.67,1.79,1.79,0,0,0,.62,1.4,8.1,8.1,0,0,0,3.14,1.12,21,21,0,0,1,3.48,1,4.74,4.74,0,0,1,2,1.6,3.91,3.91,0,0,1,.66,2.24,4.28,4.28,0,0,1-.72,2.37,4.74,4.74,0,0,1-2.07,1.73,7.23,7.23,0,0,1-3,.62,9.21,9.21,0,0,1-3.59-.62,5,5,0,0,1-2.26-1.88A5.31,5.31,0,0,1,594.38,359.38Z" fill="#4c5054"/><path d="M613.77,364.44V350.55h-5.19v-1.86h12.49v1.86h-5.21v13.89Z" fill="#4c5054"/><path d="M315.74,236.06V220.31h5.43a13.09,13.09,0,0,1,2.8.23,5.33,5.33,0,0,1,2.31,1.13,6.33,6.33,0,0,1,1.86,2.69,10.59,10.59,0,0,1,.62,3.74,10.94,10.94,0,0,1-.42,3.18,7.86,7.86,0,0,1-1.07,2.29,5.57,5.57,0,0,1-1.44,1.43,5.76,5.76,0,0,1-1.88.79,10.61,10.61,0,0,1-2.53.27Zm2.09-1.86h3.36a7.91,7.91,0,0,0,2.44-.29,3.45,3.45,0,0,0,1.41-.81,5,5,0,0,0,1.16-2,9.87,9.87,0,0,0,.41-3,7.35,7.35,0,0,0-.81-3.8,4.11,4.11,0,0,0-2-1.78,8.32,8.32,0,0,0-2.7-.32h-3.3Z" fill="#4c5054"/><path d="M329.9,236.06,336,220.31h2.24l6.45,15.75h-2.38l-1.83-4.77h-6.59l-1.73,4.77Zm4.54-6.47h5.34l-1.64-4.36c-.5-1.32-.88-2.41-1.12-3.26a19.21,19.21,0,0,1-.85,3Z" fill="#4c5054"/><path d="M345.59,231l2-.17a4.32,4.32,0,0,0,.65,1.94,3.58,3.58,0,0,0,1.58,1.22,6.07,6.07,0,0,0,2.42.47,5.94,5.94,0,0,0,2.11-.35,3,3,0,0,0,1.36-1,2.29,2.29,0,0,0,.44-1.34,2,2,0,0,0-.43-1.3,3.19,3.19,0,0,0-1.42-.93,29,29,0,0,0-2.8-.77,13.76,13.76,0,0,1-3-1,4.21,4.21,0,0,1-1.68-1.47,3.56,3.56,0,0,1-.55-2,4,4,0,0,1,.67-2.23,4.19,4.19,0,0,1,2-1.57,7.44,7.44,0,0,1,2.89-.54,7.81,7.81,0,0,1,3.09.57,4.41,4.41,0,0,1,2.05,1.66,4.81,4.81,0,0,1,.78,2.48l-2,.15a3.24,3.24,0,0,0-1.09-2.26,4.25,4.25,0,0,0-2.75-.76,4.41,4.41,0,0,0-2.75.69,2.09,2.09,0,0,0-.87,1.67,1.79,1.79,0,0,0,.62,1.4,8.1,8.1,0,0,0,3.14,1.12,21,21,0,0,1,3.48,1,4.74,4.74,0,0,1,2,1.6,3.91,3.91,0,0,1,.66,2.24,4.28,4.28,0,0,1-.72,2.37,4.74,4.74,0,0,1-2.07,1.73,7.23,7.23,0,0,1-3,.62,9.12,9.12,0,0,1-3.58-.62,5,5,0,0,1-2.27-1.88A5.31,5.31,0,0,1,345.59,231Z" fill="#4c5054"/><path d="M365,236.06V222.17h-5.19v-1.86h12.49v1.86h-5.21v13.89Z" fill="#4c5054"/><path d="M318.1,171.37a8.53,8.53,0,0,1,2.11-6.14,7.14,7.14,0,0,1,5.43-2.22,7.6,7.6,0,0,1,3.94,1,6.87,6.87,0,0,1,2.66,2.91,10.1,10.1,0,0,1,0,8.51,6.67,6.67,0,0,1-2.74,2.87,7.93,7.93,0,0,1-3.83,1,7.41,7.41,0,0,1-4-1.08A6.92,6.92,0,0,1,319,175.3,8.91,8.91,0,0,1,318.1,171.37Zm2.15,0a6.33,6.33,0,0,0,1.53,4.49,5.35,5.35,0,0,0,7.71,0,6.65,6.65,0,0,0,1.52-4.69,8,8,0,0,0-.65-3.36,4.87,4.87,0,0,0-1.9-2.22,5.11,5.11,0,0,0-2.81-.79,5.29,5.29,0,0,0-3.8,1.52Q320.24,167.85,320.25,171.4Z" fill="#4c5054"/><path d="M334.12,179l6.05-15.75h2.24L348.86,179h-2.38l-1.83-4.77h-6.59L336.33,179Zm4.54-6.47H344l-1.64-4.36c-.5-1.32-.88-2.41-1.12-3.26a19.52,19.52,0,0,1-.85,3Z" fill="#4c5054"/><path d="M349.81,174l2-.17a4.32,4.32,0,0,0,.65,1.94A3.58,3.58,0,0,0,354,177a6.07,6.07,0,0,0,2.42.47,5.72,5.72,0,0,0,2.11-.36,3,3,0,0,0,1.36-1,2.29,2.29,0,0,0,.44-1.35,2,2,0,0,0-.43-1.29,3.19,3.19,0,0,0-1.42-.93,26.22,26.22,0,0,0-2.8-.77,14.33,14.33,0,0,1-3-1,4.21,4.21,0,0,1-1.68-1.47,3.56,3.56,0,0,1-.55-2,4,4,0,0,1,.67-2.23,4.19,4.19,0,0,1,2-1.57A7.44,7.44,0,0,1,356,163a7.88,7.88,0,0,1,3.09.57,4.41,4.41,0,0,1,2.05,1.66,4.78,4.78,0,0,1,.78,2.48l-2,.15a3.24,3.24,0,0,0-1.09-2.26,4.25,4.25,0,0,0-2.75-.76,4.39,4.39,0,0,0-2.75.69,2.07,2.07,0,0,0-.87,1.67,1.8,1.8,0,0,0,.62,1.4,8.28,8.28,0,0,0,3.14,1.12,20,20,0,0,1,3.48,1,4.67,4.67,0,0,1,2,1.6,3.91,3.91,0,0,1,.66,2.24,4.28,4.28,0,0,1-.72,2.37,4.74,4.74,0,0,1-2.07,1.73,7.23,7.23,0,0,1-3,.62,9,9,0,0,1-3.59-.63,5,5,0,0,1-2.26-1.87A5.31,5.31,0,0,1,349.81,174Z" fill="#4c5054"/><path d="M369.2,179V165.15H364v-1.86H376.5v1.86h-5.21V179Z" fill="#4c5054"/><rect x="472.89" y="58.31" width="2" height="500.37" fill="#f63"/></g></svg>